<?xml version="1.0" encoding="utf-8"?>
<!-- Generator: Adobe Illustrator 16.0.0, SVG Export Plug-In . SVG Version: 6.00 Build 0)  -->
<!DOCTYPE svg PUBLIC "-//W3C//DTD SVG 1.1//EN" "http://www.w3.org/Graphics/SVG/1.1/DTD/svg11.dtd">
<svg version="1.1" id="レイヤー_1" xmlns="http://www.w3.org/2000/svg" xmlns:xlink="http://www.w3.org/1999/xlink" x="0px"
	 y="0px" width="651.036px" height="201.164px" viewBox="0 0 651.036 201.164" enable-background="new 0 0 651.036 201.164"
	 xml:space="preserve">
<g>
	<polygon fill="none" points="578.061,91.336 578.061,168.745 606.954,130.045 	"/>
	<path fill="#FFFFFF" d="M295.075,139.825c-0.585,4.302-1.727,8.36-3.396,12.061c-1.643,3.64-3.806,6.815-6.428,9.438
		c-2.601,2.601-5.746,4.672-9.351,6.155c-3.607,1.485-7.763,2.239-12.35,2.239c-5.129,0-9.742-1.034-13.712-3.074
		c-4.024-2.065-7.472-4.843-10.246-8.257c-2.798-3.444-4.948-7.492-6.389-12.032c-1.461-4.602-2.203-9.46-2.203-14.44
		c0-4.096,0.617-8.53,1.834-13.178c1.195-4.562,3.158-8.838,5.837-12.711c2.63-3.803,6.159-7.02,10.488-9.561
		c4.25-2.492,9.601-3.756,15.907-3.756c4.139,0,7.938,0.662,11.29,1.967c3.38,1.318,6.322,3.055,8.746,5.162
		c2.407,2.093,4.333,4.475,5.723,7.076c1.365,2.561,2.159,5.19,2.36,7.816l0.2,2.618h7.884l-0.089-2.92
		c-0.089-2.932-0.919-6.162-2.467-9.603c-1.537-3.413-3.834-6.662-6.829-9.658c-2.999-2.997-6.763-5.513-11.189-7.477
		c-4.475-1.982-9.733-2.987-15.629-2.987c-7.532,0-14.079,1.492-19.46,4.436c-5.332,2.916-9.731,6.729-13.077,11.329
		c-3.302,4.539-5.749,9.661-7.273,15.223c-1.5,5.47-2.261,10.928-2.261,16.223c0,6.524,0.998,12.639,2.966,18.175
		c1.981,5.572,4.775,10.438,8.304,14.464c3.556,4.059,7.88,7.282,12.854,9.58c4.985,2.305,10.512,3.473,16.429,3.473
		c5.635,0,10.787-0.935,15.315-2.777c4.524-1.843,8.509-4.444,11.842-7.732c3.305-3.265,6.035-7.219,8.117-11.754
		c2.053-4.478,3.466-9.439,4.201-14.747l0.447-3.224h-8.066L295.075,139.825z"/>
	<polygon fill="#FFFFFF" points="341.94,110.98 333.936,110.98 333.936,139.357 305.676,139.357 305.676,147.361 333.936,147.361 
		333.936,175.738 341.94,175.738 341.94,147.361 370.201,147.361 370.201,139.357 341.94,139.357 	"/>
	<polygon fill="#FFFFFF" points="412.006,110.98 404,110.98 404,139.357 375.74,139.357 375.74,147.361 404,147.361 404,175.738 
		412.006,175.738 412.006,147.361 440.266,147.361 440.266,139.357 412.006,139.357 	"/>
	<polygon fill="#FFFFFF" points="521.041,163.081 487.509,86.69 478.969,86.69 478.969,175.738 486.975,175.738 486.975,105.401 
		517.907,175.738 524.175,175.738 555.107,105.401 555.107,175.738 563.113,175.738 563.113,86.69 554.572,86.69 	"/>
	<path fill="#FFFFFF" d="M617.179,130.055l32.493-43.365h-10.001l-27.653,36.76l-27.431-36.76h-6.526h-3.468h-4.538v89.048h2.785
		h5.221h4.773l29.171-39.078l29.058,39.078h9.974L617.179,130.055z M578.061,91.336l28.894,38.709l-28.894,38.699V91.336z"/>
	<g>
		<path d="M296.646,154.161c-1.947,4.243-4.458,7.882-7.532,10.918c-3.077,3.036-6.715,5.412-10.919,7.124
			c-4.204,1.711-8.953,2.568-14.247,2.568c-5.528,0-10.608-1.07-15.239-3.211c-4.633-2.141-8.603-5.099-11.911-8.875
			c-3.31-3.775-5.897-8.291-7.766-13.546s-2.803-10.996-2.803-17.225c0-5.06,0.719-10.218,2.16-15.473
			c1.44-5.255,3.717-10.023,6.832-14.306c3.112-4.28,7.161-7.783,12.145-10.51c4.981-2.724,11.016-4.087,18.101-4.087
			c5.526,0,10.353,0.916,14.48,2.744c4.125,1.83,7.57,4.127,10.334,6.89c2.763,2.765,4.847,5.704,6.248,8.816
			c1.401,3.115,2.141,5.956,2.219,8.525h-2.336c-0.233-3.036-1.129-6.015-2.686-8.934c-1.559-2.92-3.679-5.547-6.364-7.883
			c-2.686-2.335-5.879-4.222-9.576-5.663c-3.698-1.44-7.806-2.161-12.319-2.161c-6.852,0-12.632,1.384-17.342,4.146
			c-4.711,2.765-8.506,6.229-11.386,10.394c-2.881,4.166-4.963,8.7-6.247,13.604s-1.927,9.537-1.927,13.896
			c0,5.295,0.777,10.393,2.335,15.298c1.557,4.904,3.854,9.225,6.891,12.962c3.036,3.736,6.753,6.734,11.151,8.991
			c4.397,2.26,9.401,3.387,15.006,3.387c4.981,0,9.459-0.817,13.43-2.452s7.396-3.892,10.276-6.772
			c2.879-2.88,5.215-6.307,7.007-10.276c1.79-3.971,2.996-8.251,3.62-12.846h2.335C299.916,145.267,298.591,149.917,296.646,154.161
			z"/>
		<path d="M339.503,113.814v28.377h28.261v2.335h-28.261v28.377h-2.335v-28.377h-28.26v-2.335h28.26v-28.377H339.503z"/>
		<path d="M409.568,113.814v28.377h28.26v2.335h-28.26v28.377h-2.336v-28.377h-28.26v-2.335h28.26v-28.377H409.568z"/>
		<path d="M560.676,89.525v83.378h-2.336V92.444h-0.233l-35.384,80.459h-2.568l-35.384-80.459h-0.233v80.459h-2.336V89.525h3.854
			l35.267,80.342h0.233l35.267-80.342H560.676z"/>
		<path d="M575.623,89.525v83.378h-2.336V89.525H575.623z"/>
		<path d="M644.403,89.525l-30.362,40.521l31.764,42.857h-2.92l-30.479-40.988l-30.596,40.988h-2.919l31.997-42.857l-30.245-40.521
			h2.919l28.844,38.652l29.077-38.652H644.403z"/>
	</g>
</g>
<g>
	<path fill="#FFFFFF" stroke="#FFFFFF" stroke-miterlimit="10" d="M88.363,176.208l-0.578-0.016l-3.653-0.197
		c-0.485-0.029-1.014-0.08-1.539-0.133l-0.668-0.064c-2.737-0.236-5.412-0.617-8.66-1.23c-2.841-0.543-5.737-1.25-8.615-2.098
		c-11.874-3.504-23.181-9.627-32.697-17.711c-9.94-8.369-18.124-19.209-23.656-31.34c-2.753-6.109-4.814-12.572-6.133-19.217
		c-0.599-2.908-1.043-6.09-1.396-9.996c-0.105-1.428-0.167-2.811-0.228-4.191L0.5,89.065l0.003-3.672l0.01-0.886l0.222-4.121
		l0.203-2.08c0.141-1.424,0.286-2.896,0.536-4.321l0.371-2.411l0.497-2.447c0.31-1.655,0.741-3.292,1.158-4.875
		c1.696-6.393,4.156-12.594,7.314-18.434c3.064-5.693,6.763-11.057,10.989-15.936c4.151-4.736,8.803-9.018,13.834-12.734
		c9.511-7.051,20.558-12.109,31.943-14.626c5.378-1.199,10.799-1.873,16.108-2.002C84.197,0.506,84.721,0.5,85.241,0.5l2.264,0.008
		l1.155,0.014l4.538,0.258l1.878,0.207c0.44,0.055,0.839,0.098,1.235,0.14c0.806,0.087,1.639,0.177,2.478,0.319
		c4.137,0.615,8.528,1.648,13.366,3.152l0.133,0.045c0.568,0.209,1.135,0.406,1.696,0.604c1.414,0.495,2.877,1.008,4.284,1.643
		c0.265,0.111,0.577,0.242,0.888,0.371c0.63,0.262,1.252,0.521,1.857,0.801l2.628,1.279c5.909,2.925,11.376,6.551,16.731,11.096
		c0.624,0.523,1.22,1.051,1.796,1.57l-0.644,0.713l0.937-0.332l0.056-0.061c0.011,0.01,0.021,0.02,0.031,0.029l0.122-0.043
		l0.186,0.326c2.534,2.352,4.486,4.51,5.928,6.105l0.696,0.768l2.812,3.469l-4.3,3.691L145.1,33.49l-0.348-0.342
		c-0.292,2.436-0.998,5.008-2.079,7.537c-1.415,3.385-3.459,6.889-6.064,10.394c-4.279,5.729-10.082,11.53-16.868,16.874
		c2.133,5.089,3.847,9.753,5.249,14.267c0.592,1.856,1.141,3.72,1.634,5.558c5.943-3.902,11.164-7.926,15.242-11.754
		c2.565-2.41,4.725-4.835,6.417-7.205c1.555-2.172,2.647-4.261,3.162-6.045c0.507-1.809,0.59-3.201,0.496-3.894l-0.021-0.15
		l-0.004-0.151c-0.004-0.164-0.036-0.326-0.077-0.532c-0.037-0.186-0.067-0.354-0.088-0.508l-0.071-0.411l5.256-1.895l0.296,0.521
		l0.049,0.104l0.044,0.064c0.174,0.289,0.458,0.762,0.685,1.395c0.495,1.156,1.252,3.467,1.164,6.644
		c-0.058,3.034-0.828,6.383-2.229,9.658c-1.419,3.391-3.462,6.895-6.064,10.394c-5.142,6.882-12.346,13.755-20.839,19.882
		c-0.026,0.018-0.052,0.037-0.078,0.057c1.122,8.037,1.321,15.781,0.573,22.498c-0.471,4.143-1.314,7.932-2.511,11.275
		c0.315-0.254,0.629-0.512,0.94-0.773l2.364-2.074l2.02-1.961c0.503-0.469,0.856-0.859,1.231-1.271l0.292-0.322l1.255-1.35
		l4.614-5.518l20.917,18.48l-5.095,5.428l-2.298,2.252c-0.714,0.695-1.522,1.484-2.395,2.215l-0.778,0.678
		c-0.659,0.574-1.351,1.178-2.086,1.793l-3.454,2.695c-6.071,4.521-12.611,8.242-19.489,11.102
		c-3.617,1.572-7.874,2.998-12.972,4.342c-4.549,1.162-9.568,1.996-14.941,2.482l-3.944,0.234c-0.777,0.041-1.544,0.049-2.314,0.049
		l-2.778,0.004H88.363z M35.465,129.929c2.909,3.209,6.082,6.1,9.491,8.648c7.619,5.752,16.449,9.912,25.548,12.039
		c2.212,0.516,4.403,0.918,6.511,1.195c2.279,0.303,4.432,0.488,6.228,0.537c0.239,0.008,0.443,0.02,0.648,0.029
		c0.27,0.016,0.54,0.031,0.857,0.033l3.521-0.012l1.295-0.084c0.386-0.029,0.792-0.051,1.196-0.072
		c0.602-0.031,1.199-0.061,1.788-0.129l3.037-0.354c0.688-0.105,1.363-0.217,2.026-0.332c-0.05-0.021-0.1-0.043-0.148-0.063
		c-3.386-1.416-6.89-3.459-10.395-6.064c-5.426-4.053-10.948-9.502-16.051-15.83c-0.032,0.006-0.064,0.014-0.097,0.02
		c-6.989,1.363-13.796,2.059-20.204,2.059c-2.961,0-5.826-0.152-8.516-0.453C39.834,130.828,37.583,130.437,35.465,129.929z
		 M86.388,125.566c2.917,4.096,5.823,7.691,8.669,10.721c2.414,2.568,4.84,4.729,7.206,6.42c2.169,1.553,4.258,2.645,6.043,3.158
		c1.214,0.34,2.396,0.531,3.308,0.531c0.215,0,0.412-0.01,0.588-0.033l0.147-0.02l0.149-0.006c0.164-0.004,0.326-0.035,0.532-0.076
		c0.09-0.018,0.177-0.035,0.259-0.049c0.068-0.051,0.141-0.104,0.217-0.158c0.167-0.119,0.312-0.221,0.414-0.326l0.109-0.111
		l0.121-0.1c0.544-0.445,1.434-1.516,2.302-3.189c0.839-1.637,1.473-3.908,1.824-6.553c0.388-2.893,0.471-6.139,0.248-9.654
		c-0.265-4.148-0.9-8.727-1.895-13.654c-0.023,0.014-0.047,0.027-0.07,0.041c-1.953,1.092-4.542,2.516-7.251,3.838l-3.717,1.779
		l-3.703,1.676c-5.576,2.377-10.613,4.25-15.457,5.75C86.417,125.556,86.402,125.56,86.388,125.566z M26.324,117.013
		c1.635,0.838,3.905,1.473,6.555,1.826c1.824,0.244,3.82,0.367,5.933,0.367c1.201,0,2.453-0.039,3.72-0.119
		c5.582-0.357,12.086-1.416,18.991-3.082c-0.969-1.564-1.945-3.227-2.95-5.025c-1.61-2.875-2.795-5.111-3.838-7.248l-1.779-3.717
		l-1.187-2.621c-5.325,0.811-10.491,1.221-15.387,1.221c-2.941,0-5.785-0.15-8.452-0.449c-3.376-0.383-6.518-1.016-9.376-1.885
		c0.278,1.451,0.575,2.752,0.906,3.99c1.355,5.24,3.277,10.268,5.719,14.961c0.294,0.559,0.612,1.113,0.934,1.67
		C26.182,116.939,26.252,116.976,26.324,117.013z M69.704,96.531l0.887,1.83c0.777,1.609,1.581,3.273,2.402,4.857l0.511,0.982
		c0.392,0.758,0.782,1.514,1.194,2.25l0.194,0.365c0.513,0.971,1.022,1.936,1.559,2.879c0.313,0.57,0.625,1.125,0.938,1.674
		c1.283-0.436,2.57-0.883,3.862-1.336c5.23-1.898,9.801-3.713,13.94-5.535l3.552-1.561l3.362-1.563l1.801-0.871
		c1.621-0.783,3.297-1.592,4.891-2.416l1.033-0.539c0.739-0.383,1.478-0.764,2.198-1.168c0.131-0.068,0.26-0.137,0.387-0.205
		c-0.183-0.594-0.371-1.186-0.563-1.775c-0.755-2.361-1.581-4.718-2.38-6.998c-1.251-3.447-2.52-6.735-3.782-9.799
		c-1.119,0.672-2.256,1.33-3.402,1.971c-2.862,1.604-5.099,2.789-7.249,3.838l-3.718,1.78l-3.651,1.653
		c-5.582,2.381-10.636,4.261-15.509,5.773c-1.204,0.385-2.458,0.762-3.747,1.127L69.704,96.531z M17.301,85.701
		c0.432,0.078,0.866,0.146,1.307,0.206c1.826,0.243,3.825,0.367,5.941,0.367c1.198,0,2.447-0.04,3.712-0.119
		c5.404-0.345,11.468-1.304,18.059-2.854c-0.291-0.867-0.551-1.674-0.791-2.449c-0.827-2.586-1.573-5.213-2.211-7.781
		c-0.677-2.604-1.261-5.213-1.729-7.726c-2-10.257-2.558-20.196-1.606-28.722c0.313-2.754,0.792-5.352,1.429-7.766
		c-3.307,2.953-6.354,6.207-9.083,9.7c-3.301,4.28-6.141,8.942-8.428,13.842c-2.332,4.963-4.065,10.171-5.155,15.487l-0.05,0.249
		c-0.262,1.292-0.508,2.513-0.662,3.735l-0.306,2.094l-0.195,2.053c-0.122,1.025-0.163,1.961-0.205,2.951
		c-0.016,0.361-0.093,2.024-0.093,2.024l0.011,3.675L17.301,85.701z M54.91,19.306c-0.296,0.445-0.579,0.929-0.847,1.443
		c-0.837,1.636-1.471,3.907-1.822,6.55c-0.387,2.881-0.47,6.129-0.248,9.654c0.459,7.203,2.055,15.807,4.612,24.874
		c0.317,1.134,0.653,2.266,1,3.405c0.337,1.174,0.689,2.307,1.06,3.442c0.713,2.227,1.468,4.394,2.381,6.995
		c0.369,1.017,0.751,2.049,1.144,3.087c1.538-0.517,3.086-1.06,4.694-1.622l0.095-0.033c5.135-1.863,9.817-3.721,13.891-5.514
		l3.604-1.584l3.363-1.561l1.857-0.9c1.602-0.773,3.257-1.572,4.831-2.388l1.011-0.526c0.749-0.387,1.496-0.773,2.227-1.181
		c0,0,0.944-0.501,1.235-0.655c-0.483-0.988-0.975-1.978-1.472-2.937l-0.517-0.993c-0.391-0.754-0.78-1.506-1.19-2.242l-0.162-0.305
		c-0.522-0.988-1.041-1.975-1.589-2.936c-1.088-1.982-2.229-3.9-3.334-5.755l-0.285-0.479c-4.862-8.052-10.049-15.098-14.987-20.36
		c-2.413-2.566-4.838-4.727-7.206-6.419c-2.17-1.553-4.259-2.645-6.041-3.157c-0.78-0.22-1.535-0.371-2.247-0.451
		C58.277,17.527,56.582,18.383,54.91,19.306z M73.848,12.05c3.137,1.395,6.368,3.319,9.603,5.722
		c6.883,5.143,13.756,12.348,19.88,20.84c1.436,1.947,2.897,4.098,4.453,6.549c1.365,2.099,2.731,4.375,4.161,6.932
		c0.407,0.729,0.815,1.471,1.221,2.223c5.632-3.746,10.477-7.514,14.431-11.224c2.563-2.409,4.723-4.835,6.418-7.207
		c1.552-2.167,2.644-4.257,3.157-6.042c0.359-1.277,0.506-2.348,0.528-3.109c-0.492-0.395-0.974-0.768-1.456-1.129
		c-5.15-3.893-10.32-6.92-15.815-9.262l-2.561-1.072c-0.478-0.188-1.021-0.378-1.568-0.57c-0.335-0.117-0.671-0.234-1.007-0.357
		c-1.199-0.461-2.444-0.818-3.763-1.198c-0.576-0.166-1.157-0.333-1.739-0.509c-4.436-1.104-8.412-1.807-12.153-2.148
		c-0.711-0.078-1.363-0.109-2.019-0.143c-0.421-0.021-0.843-0.043-1.267-0.072l-1.577-0.088l-4.313-0.002
		c0,0-1.595,0.088-2.029,0.11c-0.728,0.037-1.459,0.073-2.193,0.138C80.787,10.709,77.308,11.252,73.848,12.05z"/>
	<path fill="#05658D" d="M141.664,128.508c0,0-0.972,1.161-2.794,3.34c-0.386,0.416-0.818,0.881-1.294,1.392
		c-0.473,0.515-0.958,1.079-1.635,1.707c-0.644,0.626-1.336,1.297-2.073,2.013c-0.774,0.68-1.597,1.4-2.466,2.163
		c-3.542,2.97-8.178,6.248-14.021,9.074c-2.892,1.476-6.134,2.701-9.603,3.844c-3.485,1.109-7.258,1.93-11.249,2.535
		c-1.004,0.117-2.018,0.235-3.042,0.355c-1.025,0.118-2.07,0.136-3.123,0.213c-0.458,0.03-0.919,0.061-1.382,0.091
		c-0.601,0.002-1.203,0.005-1.809,0.006c-0.605,0.002-1.213,0.004-1.824,0.005c-0.59-0.003-1.039-0.045-1.569-0.063
		c-1.99-0.055-4.292-0.265-6.521-0.56c-2.245-0.296-4.511-0.716-6.786-1.246c-9.098-2.127-18.334-6.288-26.6-12.528
		c-6.205-4.639-11.778-10.499-16.345-17.234c1.327,0.797,2.84,1.53,4.521,2.141c3.203,1.193,6.965,2.058,11.081,2.525
		c8.24,0.92,17.893,0.375,27.888-1.576c0.58-0.107,1.166-0.24,1.75-0.36c5.248,6.721,10.936,12.449,16.606,16.684
		c3.325,2.473,6.662,4.413,9.817,5.732c3.143,1.344,6.152,1.956,8.621,2.001c2.477,0.069,4.371-0.458,5.535-0.974
		c0.603-0.199,1.002-0.52,1.291-0.654c0.279-0.159,0.424-0.241,0.424-0.241s-0.165,0.029-0.484,0.085
		c-0.323,0.034-0.771,0.178-1.385,0.195c-1.201,0.161-2.981,0-5.058-0.583c-2.085-0.601-4.445-1.814-6.906-3.576
		c-2.462-1.759-5.044-4.039-7.626-6.785c-3.719-3.96-7.487-8.807-11.147-14.252c1.251-0.355,2.501-0.732,3.751-1.132
		c5.093-1.578,10.154-3.507,15.128-5.626l3.647-1.65c1.234-0.591,2.467-1.181,3.697-1.769c2.422-1.183,4.784-2.464,7.11-3.766
		c1.148-0.643,2.283-1.297,3.403-1.967c1.471,6.392,2.429,12.455,2.774,17.876c0.237,3.762,0.135,7.206-0.267,10.206
		c-0.4,3-1.128,5.553-2.118,7.484c-0.991,1.91-2.108,3.33-3.024,4.079c-0.426,0.435-0.863,0.678-1.104,0.886
		c-0.258,0.193-0.392,0.294-0.392,0.294s0.159-0.05,0.467-0.146c0.302-0.123,0.781-0.182,1.346-0.487
		c0.293-0.145,0.62-0.305,0.98-0.482c0.335-0.216,0.702-0.452,1.098-0.708c0.776-0.541,1.612-1.266,2.426-2.192
		c1.652-1.834,3.263-4.448,4.428-7.659c1.193-3.203,2.059-6.964,2.526-11.081c0.783-7.025,0.493-15.082-0.815-23.498
		c0.493-0.348,0.996-0.688,1.479-1.043c8.261-5.958,15.26-12.63,20.222-19.273c2.473-3.326,4.413-6.663,5.732-9.817
		c1.345-3.143,1.956-6.152,2.002-8.622c0.069-2.477-0.458-4.37-0.973-5.534c-0.2-0.603-0.52-1.003-0.654-1.292
		c-0.16-0.279-0.242-0.424-0.242-0.424s0.029,0.165,0.085,0.484c0.035,0.323,0.179,0.771,0.194,1.385
		c0.163,1.201,0.001,2.982-0.582,5.059c-0.602,2.085-1.815,4.444-3.577,6.905c-1.758,2.462-4.038,5.044-6.784,7.625
		c-5.071,4.762-11.589,9.604-18.971,14.194c-0.131-0.533-0.248-1.064-0.388-1.598c-0.629-2.541-1.354-5.086-2.165-7.626
		c-1.589-5.116-3.485-10.106-5.648-15.18l-0.373-0.822c7.32-5.541,13.55-11.614,18.073-17.671c2.472-3.325,4.413-6.663,5.732-9.817
		c1.344-3.142,1.956-6.151,2.001-8.621c0.058-2.055-0.297-3.702-0.714-4.871c2.472,2.122,4.357,4.042,5.791,5.448
		c1.922,2.112,2.945,3.238,2.945,3.238s-0.96-1.185-2.761-3.404c-1.577-1.733-3.734-4.204-6.726-6.943
		c-0.064-0.108-0.124-0.208-0.164-0.294c-0.159-0.279-0.241-0.424-0.241-0.424s0.027,0.152,0.072,0.412
		c-0.552-0.498-1.122-1.003-1.732-1.515c-4.082-3.465-9.387-7.367-16.137-10.708c-0.846-0.412-1.705-0.83-2.578-1.256
		c-0.881-0.407-1.799-0.766-2.72-1.161c-1.828-0.825-3.798-1.438-5.789-2.167c-4.044-1.257-8.378-2.378-13.001-3.065
		c-1.152-0.196-2.351-0.288-3.545-0.437c-0.6-0.065-1.202-0.131-1.807-0.198c-0.588-0.033-1.179-0.068-1.772-0.102
		c-0.593-0.033-1.189-0.068-1.788-0.102l-0.9-0.051l-0.983-0.009c-1.24,0.005-2.494-0.026-3.759,0.012
		C79.317,3.477,74.087,4.113,68.809,5.29c-10.556,2.333-21.284,7.029-30.871,14.138c-4.795,3.542-9.307,7.668-13.376,12.311
		c-4.043,4.665-7.635,9.845-10.638,15.427c-3.016,5.577-5.412,11.569-7.067,17.809c-0.411,1.56-0.824,3.124-1.121,4.716
		l-0.483,2.382l-0.371,2.403c-0.277,1.579-0.42,3.27-0.589,4.936l-0.12,1.247l-0.061,1.141l-0.123,2.282l-0.029,0.571L3.953,85.4
		L3.95,86.621v2.444c0.073,1.627,0.135,3.259,0.254,4.887c0.295,3.249,0.696,6.498,1.354,9.699
		c1.271,6.407,3.264,12.67,5.931,18.593c5.391,11.817,13.346,22.301,22.913,30.354c9.536,8.101,20.543,13.872,31.664,17.152
		c2.781,0.82,5.566,1.501,8.339,2.032c2.788,0.526,5.466,0.939,8.392,1.193c0.697,0.063,1.468,0.15,2.099,0.189
		c0.61,0.032,1.217,0.065,1.822,0.098c0.604,0.032,1.206,0.065,1.806,0.098l0.112,0.005l0.343,0.009h0.249h0.499l0.993-0.001
		c1.323-0.017,2.636,0.022,3.934-0.048c1.3-0.077,2.584-0.152,3.857-0.229c5.082-0.46,9.941-1.241,14.476-2.399
		c4.518-1.19,8.769-2.551,12.604-4.219c7.736-3.215,13.997-7.117,18.835-10.719c1.19-0.929,2.318-1.808,3.379-2.635
		c1.031-0.862,1.975-1.702,2.863-2.471c0.88-0.737,1.715-1.564,2.472-2.301c0.756-0.74,1.441-1.412,2.056-2.015
		c1.965-2.096,3.014-3.214,3.014-3.214L141.664,128.508z M114.027,98.855c-1.083,0.605-2.202,1.165-3.312,1.748
		c-2.227,1.154-4.518,2.23-6.801,3.343c-1.137,0.527-2.275,1.056-3.416,1.585l-3.55,1.561c-4.674,2.058-9.431,3.905-14.147,5.617
		c-2.04,0.714-4.068,1.416-6.088,2.078c-0.714-1.212-1.424-2.437-2.112-3.691c-0.606-1.067-1.181-2.162-1.762-3.261
		c-0.605-1.083-1.166-2.202-1.748-3.312c-1.155-2.228-2.231-4.518-3.344-6.801c-0.527-1.138-1.056-2.277-1.585-3.417l-1.07-2.436
		c2.28-0.584,4.563-1.23,6.842-1.958c5.117-1.589,10.106-3.485,15.181-5.648l3.597-1.628c1.234-0.591,2.467-1.181,3.698-1.771
		c2.422-1.183,4.784-2.462,7.109-3.765c2.088-1.167,4.125-2.384,6.109-3.651c1.837,4.251,3.563,8.688,5.133,13.016
		c0.829,2.367,1.651,4.716,2.399,7.056c0.382,1.168,0.743,2.334,1.078,3.497c0.057,0.185,0.107,0.368,0.163,0.554
		C115.615,98.002,114.827,98.431,114.027,98.855z M50.047,26.924c0.399-3,1.128-5.553,2.117-7.484
		c0.455-0.875,0.934-1.64,1.409-2.292c2.136-1.203,4.309-2.298,6.513-3.274c1.011,0.053,2.197,0.237,3.527,0.611
		c2.084,0.6,4.443,1.814,6.905,3.576c2.462,1.759,5.043,4.039,7.625,6.785c5.163,5.501,10.427,12.688,15.355,20.851
		c1.22,2.048,2.466,4.126,3.647,6.281c0.606,1.067,1.181,2.162,1.762,3.261c0.605,1.084,1.166,2.202,1.749,3.313
		c0.923,1.78,1.797,3.603,2.679,5.428c-0.107,0.06-0.21,0.122-0.318,0.182c-1.066,0.606-2.162,1.182-3.261,1.763
		c-1.083,0.604-2.202,1.165-3.313,1.748c-2.228,1.154-4.518,2.229-6.8,3.343c-1.138,0.527-2.277,1.056-3.416,1.584l-3.602,1.583
		c-4.572,2.013-9.402,3.893-14.097,5.595c-2.366,0.829-4.715,1.652-7.054,2.4c-0.119,0.038-0.237,0.07-0.356,0.109
		c-0.736-1.898-1.453-3.799-2.134-5.678c-0.83-2.366-1.651-4.715-2.4-7.055c-0.381-1.168-0.743-2.333-1.077-3.497
		c-0.353-1.16-0.694-2.312-1.016-3.46c-2.59-9.177-4.233-17.936-4.714-25.466C49.543,33.369,49.645,29.924,50.047,26.924z
		 M70.063,10.254c4.875-1.382,9.766-2.263,14.547-2.649c1.195-0.104,2.384-0.14,3.563-0.213l0.827-0.044h0.902
		c0.599,0.001,1.196,0.001,1.791,0.001s1.187,0,1.774,0.001c0.568,0.031,1.133,0.063,1.696,0.094
		c1.124,0.079,2.235,0.096,3.345,0.221c4.457,0.406,8.679,1.246,12.651,2.237c1.957,0.596,3.901,1.079,5.716,1.778
		c0.912,0.332,1.826,0.629,2.703,0.978c0.871,0.366,1.729,0.725,2.574,1.078c6.754,2.878,12.182,6.41,16.403,9.601
		c0.897,0.672,1.725,1.333,2.507,1.982c0.009,0.088,0.026,0.155,0.029,0.251c0.162,1.201,0,2.982-0.583,5.059
		c-0.601,2.085-1.814,4.444-3.576,6.905c-1.759,2.462-4.039,5.044-6.784,7.626c-4.717,4.426-10.679,8.926-17.426,13.227
		c-0.856-1.655-1.736-3.296-2.64-4.909c-1.3-2.326-2.652-4.602-4.08-6.797c-1.401-2.209-2.847-4.357-4.358-6.409
		c-5.957-8.26-12.629-15.259-19.272-20.223c-3.326-2.472-6.663-4.413-9.817-5.732c-3.142-1.343-6.151-1.956-8.62-2.002
		c-0.016,0-0.03,0-0.046,0C65.938,11.536,67.997,10.835,70.063,10.254z M15.061,79.903c0.071-1.369,0.092-2.722,0.265-4.155
		l0.202-2.122l0.308-2.11c0.178-1.413,0.467-2.804,0.748-4.197c1.142-5.572,2.957-10.998,5.363-16.118
		c2.394-5.127,5.351-9.964,8.763-14.388c3.44-4.403,7.327-8.391,11.529-11.88c2.178-1.814,4.441-3.483,6.77-5.018
		c-1.153,1.625-2.227,3.625-3.067,5.942c-1.192,3.203-2.058,6.964-2.526,11.081c-0.919,8.239-0.374,17.893,1.576,27.888
		c0.466,2.505,1.036,5.031,1.693,7.562c0.631,2.541,1.356,5.088,2.167,7.627c0.552,1.779,1.154,3.54,1.78,5.298
		c-7.755,1.985-15.119,3.261-21.579,3.673c-3.762,0.235-7.205,0.133-10.205-0.268c-1.31-0.175-2.517-0.423-3.643-0.717l-0.088-1.61
		l-0.061-1.063l-0.016-0.267l-0.006-0.132c-0.004,0.017-0.007-0.227-0.009,0.005l-0.002-0.571l-0.007-2.285l-0.003-1.143
		L15.061,79.903z M15.696,92.727c-0.035-0.267-0.062-0.536-0.093-0.804c0.689,0.32,1.414,0.623,2.175,0.898
		c3.203,1.193,6.964,2.059,11.081,2.526c7.511,0.839,16.199,0.446,25.246-1.105c0.133,0.317,0.258,0.632,0.394,0.95l1.628,3.596
		c0.591,1.234,1.182,2.468,1.771,3.699c1.182,2.422,2.462,4.784,3.765,7.109c1.301,2.327,2.653,4.603,4.081,6.798
		c0.297,0.469,0.605,0.923,0.907,1.385c-8.396,2.249-16.386,3.692-23.325,4.136c-3.763,0.237-7.207,0.135-10.207-0.268
		c-3-0.4-5.553-1.128-7.484-2.118c-0.344-0.179-0.666-0.361-0.978-0.547c-0.466-0.81-0.939-1.613-1.377-2.443
		c-2.539-4.882-4.539-10.109-5.942-15.536C16.612,98.293,16.114,95.519,15.696,92.727z"/>
</g>
<g>
	<path fill-rule="evenodd" clip-rule="evenodd" fill="#FFFFFF" d="M90.259,199.486l-1.842-1.438l1.059-2.082
		c0.039-0.076,0.074-0.154,0.11-0.232c0.142-0.307,0.335-0.729,0.643-1.16l5.566-7.711c5.125-7.105,10.426-14.453,15.699-21.643
		c2.391-3.258,4.884-6.506,7.295-9.646c1.695-2.209,3.393-4.42,5.064-6.646c2.338-3.111,3.303-6.211,2.948-9.476
		c-0.096-0.902-0.063-1.725-0.015-2.631c0.125-2.506,0.746-4.807,1.557-6.969c-0.234,0.008-0.469,0.012-0.704,0.012
		c-1.394,0-2.83-0.146-4.271-0.438c-0.635-0.129-1.266-0.271-1.896-0.414c-1.118-0.252-2.174-0.492-3.215-0.637
		c-0.664-0.094-1.442-0.188-2.17-0.188c-0.937,0-1.651,0.156-2.25,0.49c-11.171,6.24-22.335,12.492-33.499,18.743
		c-7.76,4.344-15.518,8.688-23.278,13.027c-0.528,0.293-1.091,0.43-1.735,0.43c-0.102,0-0.207-0.004-0.313-0.01l-5.612,0.324
		l3.1-4.711c0.155-0.299,0.496-0.938,1.217-1.42c1.292-0.85,2.556-1.703,3.82-2.555c3.029-2.041,6.161-4.152,9.394-6.057
		c8.695-5.124,17.58-10.239,26.173-15.188c3.386-1.949,6.771-3.898,10.154-5.854l2.035-1.18c4.882-2.836,9.929-5.768,15.313-8.059
		c1.729-0.73,3.411-1.633,4.973-2.498c2.695-1.499,5.424-3.077,8.107-4.688c0.903-0.541,1.814-1.014,2.694-1.471
		c2.257-1.172,4.204-2.184,5.537-3.99c1.513-2.053,3.242-3.76,5.167-5.104c-0.347-0.875-0.468-1.848-0.354-2.893
		c-0.881-1-1.212-2.092-1.246-3.145c-0.241-0.107-0.476-0.238-0.699-0.393c-1.318-0.896-2.088-2.445-2.115-4.039
		c-0.293,0.043-0.589,0.066-0.884,0.066c-1.241,0-2.345-0.379-3.201-1.047c-0.236,0.049-0.486,0.084-0.751,0.102
		c-0.104,0.008-0.215,0.012-0.322,0.012c-0.91,0-1.773-0.268-2.488-0.758c-0.711,0.418-1.494,0.846-2.361,1.168
		c-0.789,0.291-2.004,0.637-3.342,0.637c-0.5,0-0.986-0.051-1.441-0.146c-0.91-0.195-1.635-0.652-2.219-1.119
		c-0.373,0.182-0.771,0.365-1.182,0.533c-1.479,0.598-2.818,0.889-4.106,0.889c-1.264,0-2.47-0.281-3.599-0.84
		c-0.109,0.033-0.213,0.064-0.316,0.098c-0.625,0.191-1.402,0.432-2.299,0.469c-0.072,0.004-0.15,0.006-0.228,0.006
		c-1.892,0-3.57-1.018-4.511-2.725c-2.426,0.717-4.977,1.328-7.65,1.51c-0.519,0.035-1.035,0.055-1.549,0.055
		c-2.215,0-4.128-0.385-5.851-1.178c-0.568-0.262-1.029-0.563-1.401-0.885l-3.206,1.012c-0.525,0.166-1.053,0.338-1.58,0.51
		c-1.502,0.492-3.055,1-4.67,1.387c-0.346,0.082-0.709,0.123-1.084,0.123c-1.099,0-2.337-0.375-3.313-1.004
		c-0.373-0.24-0.662-0.525-0.891-0.824c-0.584,0.092-1.171,0.184-1.758,0.277c-2.557,0.404-5.2,0.822-7.842,1.127
		c-0.336,0.039-0.645,0.057-0.928,0.057c-0.707,0-2.533-0.16-3.701-1.684c-1.841,0.299-2.978,0.441-3.855,0.441
		c-1.262,0.002-2.188-0.281-3.193-0.973l-1.883-1.293l0.932-2.281c0.77-1.883,1.134-2.441,2.953-3.594l1.164-0.746
		c1.62-1.039,3.296-2.115,5.063-3.066c19.641-10.588,38.897-17.709,58.869-21.766c2.503-0.508,5.012-0.986,7.54-1.467l1.867-0.357
		c0.542-0.828,1.453-1.531,2.857-1.877c1.265-0.313,2.439-0.551,3.587-0.727c1.272-0.195,2.544-0.396,3.815-0.6
		c3.586-0.57,7.293-1.16,10.991-1.578c2.532-0.287,4.499-0.414,6.377-0.414c2.157,0,4.114,0.176,5.983,0.537
		c5.628,1.092,8.48,4.105,9.25,9.77l0.078,0.623c0.072,0.588,0.141,1.143,0.273,1.529c0.04,0.117,0.08,0.229,0.12,0.336
		c0.341-0.455,0.683-0.91,1.022-1.365c1.558-2.078,3.114-4.156,4.637-6.26c2.102-2.912,5.021-4.453,8.438-4.453l0.285,0.004
		c0.261,0.006,0.523,0.01,0.787,0.01c3.519,0,7.082-0.566,10.593-1.684c0.473-0.15,0.909-0.225,1.332-0.225
		c1.058,0,2.007,0.471,2.604,1.295c0.449,0.619,0.881,1.68,0.382,3.211c-0.217,0.658-0.416,1.318-0.616,1.979
		c-0.508,1.676-1.032,3.408-1.801,5.104c-0.289,0.643-0.357,1.18-0.248,1.975l0.047,0.34c0.045,0.332,0.09,0.666,0.145,0.998
		c0.422,2.57,0.156,5.027-0.788,7.297c-1.196,2.875-1.771,5.107-1.861,7.242c-0.061,1.445-0.205,2.869-0.345,4.248
		c-0.051,0.494-0.101,0.99-0.146,1.486c0.134,0.137,0.271,0.273,0.406,0.41c0.731,0.736,1.561,1.572,2.221,2.625
		c0.651,1.041,1.091,2.096,1.516,3.115c0.242,0.584,0.473,1.135,0.724,1.635c1.974,3.926,2.983,7.996,3.642,11.102
		c1.984,9.365,2.676,18.645,3.264,28.116c0.111,1.799,0.203,3.598,0.295,5.395c0.272,5.326,0.555,10.833,1.348,16.144
		c1.67,11.16,2.056,22.674,1.145,34.223c-0.136,1.74-0.449,4.029-1.674,6.301c-1.219,2.254-2.825,2.729-3.958,2.729
		c-1.048,0-2.071-0.414-3.046-1.229c-0.629-0.529-1.144-1.117-1.6-1.668c-2.529-0.104-4.397-1.984-4.788-4.85
		c-0.033-0.248-0.052-0.49-0.067-0.732l-0.008-0.111c-0.057-0.906-0.117-1.789-0.178-2.672c-0.141-2.055-0.285-4.18-0.363-6.297
		c-0.041-1.098-0.072-1.115-0.455-1.338c-3.24-1.875-4.217-5.252-4.705-7.984c-0.275-1.535-0.457-3.07-0.633-4.555
		c-0.004-0.037-0.01-0.076-0.014-0.115c-3.184-1.203-5.184-3.488-6.09-6.934c-0.328-1.25-0.386-2.484-0.438-3.572
		c-0.021-0.465-0.042-0.93-0.088-1.389c-0.164-0.232-0.347-0.467-0.528-0.699c-0.501-0.645-1.068-1.375-1.503-2.281
		c-0.557-1.172-0.939-2.521-1.173-4.14c-0.205-1.416-0.325-2.838-0.44-4.213c-0.008-0.096-0.016-0.189-0.023-0.283
		c-2.117-1.49-3.168-3.553-3.357-6.502c-0.021-0.355-0.02-0.705-0.011-1.053c-2.313-1.576-2.732-4.086-2.835-5.471
		c-1.248-1.139-1.92-2.67-2.012-4.576c-0.849-1.15-1.289-2.506-1.279-3.961c-0.209-0.34-0.391-0.689-0.547-1.049
		c-3.32,0.99-6.632,1.977-9.943,2.965c-1.387,0.414-1.988,0.693-2.605,1.436c-4.19,5.053-8.52,10.123-12.707,15.027
		c-4.301,5.039-8.748,10.249-13.036,15.429c-6.604,7.984-13.211,16.203-19.602,24.152c-2.656,3.305-5.313,6.609-7.977,9.908
		c-2.099,2.596-4.191,5.195-6.285,7.795c-2.193,2.725-4.387,5.449-6.586,8.168c-0.339,0.42-0.698,0.717-0.962,0.934l-0.178,0.148
		l-1.809,1.605L90.259,199.486z M148.4,112.961c-0.011,0.207-0.04,0.387-0.072,0.534c-0.26,1.178-1.081,2.082-2.439,2.689
		c-0.7,0.313-1.313,0.773-1.873,1.42c0.646-0.26,1.289-0.535,1.934-0.816c0.762-0.332,1.527-0.654,2.293-0.979
		c1.412-0.596,2.745-1.156,4.066-1.777c1.242-0.586,2.444-1.325,3.455-1.969c1.064-0.682,2.513-1.475,4.43-1.725l-0.066-1.305
		l3.498-2.465l-0.385-1.238l0.365-0.311l-3.887-0.193l10.419-7.371l0.085-1.012c0.002-0.352,0.008-0.945,0.287-1.611
		c0.016-0.037,0.031-0.076,0.047-0.113l-0.541-2.113c0.376-0.203,0.502-0.352,0.652-2.104c0.025-0.279,0.049-0.561,0.08-0.838
		c0.121-1.078,0.328-2.213,0.65-3.578c0.533-2.266,2.498-3.852,4.779-3.852c0.082,0,0.166,0.002,0.249,0.006
		c2.483,0.127,4.362,1.672,4.905,4.033c0.673,2.949-0.058,4.914-2.438,6.484c-0.094,0.266-0.183,0.549-0.271,0.855l3.05,1
		l-2.139,3.119l-0.041,0.074c-0.188,0.328-0.538,0.941-1.21,1.424c-0.64,0.465-1.282,0.926-1.927,1.389l1.081,1.434l-2.185,1.783
		c-0.602,0.459-1.213,0.916-1.834,1.369l0.372,0.594l-1.049,1.283c3.276-1.391,5.993-3.697,8.458-6.035
		c3.26-3.086,6.087-7.08,8.582-12.139l-0.068,0.016l-0.361-3.037c-0.065-0.035-0.174-0.084-0.343-0.137l-5.5-1.758l2.7-1.861
		c-0.225-0.207-0.426-0.445-0.604-0.715c-0.431,0.156-0.881,0.236-1.337,0.236c-0.838,0-1.529-0.266-2.023-0.5l-0.188,0.242
		l-2.009-0.76l-0.251,0.131l-0.379-0.367l-0.672-0.254l-0.619,0.297l-0.284-0.637l-0.061-0.023l0.01-0.09l-0.607-1.361l-6.354,0.996
		c-0.398,0.959-0.801,1.918-1.213,2.873c-0.094,0.215-0.189,0.428-0.289,0.637l0.668,0.506l-0.252,0.5l1.311,0.971l-1.62,2.539
		l-1.423,2.217l-1.451-0.596l0.529,0.984l-2.974,1.6l-1.511-1.5c-0.823,0.637-1.367,1.699-1.991,2.922
		c-0.243,0.477-0.487,0.953-0.749,1.414c-0.31,0.547-0.58,1.184-0.867,1.857c-0.264,0.617-0.535,1.256-0.869,1.906
		c-0.297,0.58-0.637,1.072-0.938,1.506c-0.23,0.334-0.447,0.648-0.572,0.904c-0.199,0.402-0.244,0.676-0.244,0.738
		c0.068,1.779-0.492,3.186-1.713,4.297l-0.15,0.135c-0.478,0.434-0.972,0.883-1.186,1.236c-1.178,1.959-2.558,3.48-4.203,4.631
		c-0.004,0.01-0.008,0.02-0.012,0.031c-0.122,0.283-0.273,0.635-0.501,1.004C148.542,112.752,148.472,112.859,148.4,112.961z
		 M157.535,85.254c3.609-2.162,5.84-4.92,6.939-8.541c0.283-0.936,0.527-1.887,0.773-2.838c0.293-1.135,0.595-2.307,0.963-3.477
		c0.271-0.857,0.621-1.842,1.104-2.871c-5.785,2.951-9.546,8.725-9.98,15.543c-0.039,0.611,0.064,1.354,0.177,2.143
		C157.519,85.227,157.527,85.24,157.535,85.254z M174.35,71.229c-0.123,0.223-0.238,0.445-0.341,0.668
		c-0.873,1.893-1.7,3.869-2.499,5.797l3.67-3.449l-0.762-0.539c0,0,0.508-2.35,0.543-2.512L174.35,71.229z M87.732,70.795
		c-2.939,1.217-5.844,2.502-8.713,3.854c-1.042,0.492-2.082,1.002-3.119,1.527c2.896-0.797,5.832-1.594,8.743-2.363
		c1.712-0.453,3.425-0.904,5.137-1.357c-0.563,0.092-1.153,0.154-1.78,0.154L87.732,70.795z M150.438,66.545
		c0.146,0.049,0.298,0.092,0.456,0.135c0.258,0.066,0.513,0.137,0.768,0.209c-0.008-0.02-0.015-0.039-0.021-0.061
		c-0.002,0-0.004-0.002-0.007-0.002c-0.269-0.107-0.59-0.268-0.912-0.5L150.438,66.545z M198.07,56.594
		c-0.854,0.955-1.447,1.994-1.809,3.154c-0.33,1.063-0.389,1.594-0.223,2.027c0.168,0.441,0.313,0.469,0.464,0.498
		c0.458,0.088,0.947,0.141,1.459,0.174c0.132-0.709,0.146-1.506,0.116-2.416C198.041,58.877,198.049,57.725,198.07,56.594z"/>
	<g>
		<path fill-rule="evenodd" clip-rule="evenodd" d="M136.438,82.414c1.302,0.861,1.927,0.721,3.024-0.387
			c2.951-2.969,5.906-5.938,8.949-8.813c1.227-1.156,2.684-2.07,4.071-3.119c-0.925-0.217-1.876-0.51-2.849-0.646
			c-1.846-0.258-3.338-1.092-4.49-2.533c-0.328-0.41-0.584-0.412-1.02-0.143c-8.662,5.363-17.335,10.711-26.004,16.064
			c-0.177,0.109-0.34,0.248-0.568,0.416c1.137,0.824,2.348,0.994,3.555,0.676c1.24-0.33,2.521-0.709,3.611-1.357
			c4.365-2.6,8.59-5.412,12.023-9.234c0.799-0.891,1.553-1.818,2.339-2.721c0.19-0.219,0.423-0.398,0.635-0.596
			c0.098,0.072,0.198,0.143,0.294,0.215c-0.547,0.914-1.021,1.885-1.658,2.734c-2.502,3.342-5.898,5.643-9.352,7.865
			c-0.818,0.527-1.643,1.053-2.449,1.57c0.519,1.461,1.604,2.201,3.117,1.787c1.375-0.377,2.736-0.975,3.957-1.719
			c3.818-2.334,6.799-5.578,9.461-9.133c0.244-0.326,0.535-0.617,0.807-0.924c0.108,0.068,0.215,0.139,0.32,0.209
			c-0.352,0.584-0.676,1.188-1.057,1.752c-1.818,2.693-4.102,4.932-6.688,6.881c-0.263,0.197-0.47,0.469-0.702,0.707
			c-0.279,0.129-0.57,0.242-0.84,0.389c-1.188,0.652-2.315,1.459-3.571,1.926c-0.993,0.367-2.197,0.59-3.202,0.375
			c-0.854-0.182-1.549-1.084-2.398-1.727c-0.74,0.361-1.68,0.885-2.668,1.289c-2.014,0.816-4.02,1.063-5.984-0.213
			c-0.217-0.141-0.631-0.035-0.936,0.031c-0.818,0.188-1.627,0.555-2.448,0.59c-0.917,0.041-1.708-0.445-2.159-1.301
			c-0.433-0.818-0.145-1.52,0.432-2.15c0.048-0.051,0.036-0.154,0.072-0.34c-0.578,0.186-1.082,0.348-1.586,0.51
			c-3.012,0.963-6.04,1.859-9.218,2.076c-2.067,0.139-4.098,0.016-6.022-0.869c-0.723-0.334-1.299-0.764-1.252-1.707
			c-1.84,0.582-3.615,1.146-5.391,1.703c-2.014,0.635-4.01,1.354-6.06,1.844c-0.671,0.16-1.595-0.115-2.2-0.506
			c-0.418-0.27-0.49-1.078-0.739-1.695c-0.377,0.094-0.892,0.264-1.417,0.344c-3.398,0.521-6.786,1.104-10.197,1.498
			c-1.774,0.205-2.371-0.418-2.49-1.992c-5.687,0.979-6.254,1.004-7.256,0.314c0.65-1.59,0.628-1.623,1.914-2.439
			c1.998-1.27,3.973-2.59,6.053-3.709c18.35-9.893,37.619-17.326,58.09-21.484c3.647-0.74,7.308-1.416,11.025-2.133
			c-0.123-0.984,0.541-1.395,1.352-1.594c1.104-0.271,2.219-0.504,3.34-0.676c4.896-0.752,9.777-1.609,14.695-2.164
			c3.813-0.432,7.674-0.652,11.502,0.09c4.454,0.863,6.373,2.891,6.98,7.367c0.125,0.908,0.188,1.846,0.482,2.697
			c0.318,0.936,0.74,1.898,1.356,2.654c0.923,1.141,1.804,1.012,2.687-0.172c2.24-3.01,4.512-5.996,6.711-9.035
			c1.582-2.191,3.66-3.344,6.357-3.277c4.211,0.098,8.304-0.533,12.309-1.807c0.652-0.209,1.022-0.094,0.764,0.701
			c-0.746,2.271-1.32,4.623-2.303,6.789c-0.551,1.221-0.644,2.311-0.476,3.533c0.065,0.469,0.126,0.938,0.202,1.406
			c0.323,1.973,0.168,3.889-0.607,5.752c-1.096,2.633-1.953,5.314-2.076,8.211c-0.092,2.193-0.393,4.375-0.566,6.566
			c-0.016,0.219,0.16,0.492,0.32,0.672c0.939,1.055,2.073,1.979,2.811,3.156c0.876,1.398,1.363,3.033,2.109,4.518
			c1.662,3.307,2.641,6.826,3.402,10.418c1.936,9.135,2.631,18.413,3.207,27.704c0.447,7.268,0.589,14.558,1.668,21.782
			c1.668,11.145,2.009,22.344,1.123,33.58c-0.142,1.809-0.465,3.549-1.344,5.178c-0.72,1.332-1.527,1.645-2.689,0.672
			c-0.82-0.691-1.451-1.607-2.221-2.486c-1.69,0.535-2.906-0.25-3.178-2.24c-0.029-0.219-0.041-0.439-0.057-0.66
			c-0.185-2.957-0.426-5.912-0.535-8.873c-0.059-1.563-0.253-2.75-1.866-3.686c-2.18-1.262-2.913-3.662-3.337-6.031
			c-0.376-2.104-0.572-4.236-0.85-6.361c-3.207-0.693-5.105-2.309-5.936-5.465c-0.383-1.463-0.293-3.047-0.451-4.572
			c-0.038-0.365-0.143-0.768-0.341-1.07c-0.63-0.949-1.465-1.793-1.95-2.805c-0.487-1.023-0.76-2.186-0.923-3.317
			c-0.274-1.893-0.387-3.807-0.573-5.785c-2.141-1.059-3.061-2.426-3.225-4.988c-0.041-0.689,0.039-1.389,0.01-2.078
			c-0.011-0.23-0.135-0.6-0.299-0.658c-2.043-0.74-2.504-2.393-2.586-4.305c-0.014-0.338-0.096-0.832-0.323-0.971
			c-1.284-0.797-1.669-1.973-1.665-3.389c0-0.307-0.115-0.686-0.309-0.912c-0.729-0.836-1.034-1.785-0.945-2.881
			c0.021-0.209,0.053-0.487-0.055-0.629c-0.904-1.164-1.27-2.479-1.114-3.727c-4.341,1.293-8.661,2.578-12.981,3.869
			c-1.514,0.452-2.802,0.928-3.975,2.34c-8.485,10.23-17.27,20.219-25.746,30.46c-9.318,11.266-18.414,22.713-27.601,34.086
			c-4.297,5.316-8.573,10.648-12.87,15.963c-0.229,0.283-0.539,0.498-0.816,0.744c-0.076-0.063-0.152-0.125-0.232-0.188
			c0.176-0.346,0.311-0.719,0.531-1.027c7.07-9.781,14.105-19.594,21.245-29.326c4.026-5.486,8.254-10.826,12.341-16.268
			c2.545-3.387,3.97-7.15,3.5-11.483c-0.076-0.717-0.041-1.449-0.002-2.172c0.172-3.447,1.461-6.564,2.873-9.645
			c0.146-0.324,0.292-0.654,0.496-1.111c-0.367,0.08-0.551,0.107-0.723,0.16c-2.758,0.795-5.54,0.832-8.336,0.268
			c-1.762-0.355-3.504-0.832-5.279-1.08c-2.096-0.291-4.255-0.447-6.194,0.637c-18.934,10.578-37.851,21.187-56.778,31.772
			c-0.213,0.117-0.533,0.043-0.805,0.059c0.137-0.209,0.23-0.488,0.423-0.617c4.345-2.861,8.597-5.885,13.075-8.523
			c12.051-7.1,24.195-14.032,36.306-21.03c5.573-3.221,11.091-6.553,17.039-9.084c1.796-0.76,3.53-1.682,5.238-2.629
			c2.755-1.531,5.487-3.112,8.191-4.735c3.139-1.881,6.714-3.037,9.054-6.211c1.884-2.555,4.271-4.699,7.336-6.059
			c-2.146-1.088-2.352-2.754-1.654-4.68c-2.521-1.506-1.502-3.416-0.58-5.457c-0.354,0.211-0.531,0.32-0.713,0.426
			c-0.703,0.406-1.427,0.744-2.207,0.213c-0.711-0.484-1.078-1.535-0.766-2.465c0.237-0.707,0.576-1.41,1.012-2.014
			c0.604-0.834,1.34-1.572,2.02-2.354c-0.971,0.549-1.9,1.158-2.9,1.596c-0.396,0.172-0.955-0.041-1.68-0.098
			c-1.29,1.195-3.945,1.32-4.402-0.676c-0.664,0.211-1.331,0.561-2.018,0.605c-1.098,0.076-1.781-0.783-1.574-1.764
			C135.979,82.088,136.203,82.258,136.438,82.414z M162.728,110.129c-0.003-0.078-0.006-0.158-0.01-0.234
			c1.747-1.23,3.494-2.461,5.451-3.84c-0.845-0.047-1.379-0.076-1.916-0.107c-0.025-0.074-0.047-0.15-0.072-0.227
			c1.6-1.215,3.199-2.43,4.874-3.703c-1.136-0.059-2.132-0.109-3.325-0.168c2.748-1.945,5.266-3.727,7.904-5.592
			c-0.629-0.391-1.023-0.633-1.498-0.928c-0.123,0.123-0.361,0.428-0.663,0.631c-0.199,0.133-0.493,0.115-0.745,0.166
			c0.021-0.254-0.018-0.531,0.076-0.754c0.365-0.893,0.773-1.768,1.084-2.707c-0.86,0.766-1.441,1.881-2.838,1.875
			c2.114-1.15,1.982-3.195,2.195-5.119c0.123-1.09,0.34-2.172,0.592-3.238c0.252-1.072,1.139-1.717,2.127-1.666
			c1.201,0.061,2.031,0.729,2.286,1.836c0.44,1.934,0.092,2.703-1.55,3.68c-0.305,0.182-0.558,0.568-0.687,0.914
			c-0.287,0.766-0.511,1.559-0.704,2.355c-0.123,0.504-0.221,1.041-0.168,1.547c0.016,0.168,0.523,0.299,0.82,0.418
			c0.298,0.121,0.609,0.205,0.916,0.307c-0.186,0.27-0.318,0.619-0.568,0.799c-2.063,1.498-4.146,2.967-6.229,4.439
			c-0.248,0.176-0.519,0.32-0.778,0.48c0.021,0.086,0.041,0.17,0.062,0.256c1.228-0.25,2.454-0.5,3.681-0.748
			c0.058,0.076,0.112,0.152,0.169,0.227c-1.998,1.525-4.049,2.979-6.152,4.369c0.039,0.064,0.076,0.131,0.115,0.197
			c0.875-0.291,1.746-0.584,2.621-0.875c0.064,0.104,0.13,0.203,0.193,0.305c-1.551,1.898-3.615,3.203-5.902,4.625
			c1.033,0.053,1.834,0.076,2.631,0.146c0.213,0.02,0.414,0.191,0.623,0.291c-0.139,0.186-0.24,0.426-0.423,0.539
			c-0.479,0.297-0.992,0.541-1.468,0.916c0.254-0.047,0.517-0.072,0.765-0.145c1.638-0.467,3.274-0.957,4.915-1.416
			c4.648-1.303,8.283-4.191,11.7-7.432c5.146-4.873,8.581-11.189,11.003-16.967c-0.337-0.283-0.66-0.555-1.039-0.873
			c-0.167,0.039-0.49,0.109-0.956,0.213c-0.16-1.348-1.07-2.039-2.287-2.428c0.085-0.059,0.173-0.115,0.259-0.174
			c-0.21-0.457-0.397-0.924-0.633-1.367c-0.195-0.371-0.447-0.713-0.756-1.199c-0.761-0.127-0.951-0.637-1.125-1.32
			c-0.203-0.789-0.037-1.246,0.459-1.803c-0.172,0.072-0.455,0.104-0.498,0.223c-0.18,0.49-0.556,0.518-0.986,0.652
			c-0.54,0.17-1.126,0.16-1.645,0.527c-0.875,0.617-1.619-0.18-2.41-0.42c-0.045-0.014-0.055-0.137-0.098-0.154
			c-0.743-0.283-0.743-0.281-0.424-1.184c-0.339,0.438-0.626,0.805-0.913,1.174c-0.088-0.033-0.178-0.068-0.269-0.102
			c0.032-0.301,0.062-0.604,0.092-0.922c-0.188,0.1-0.405,0.213-0.621,0.326c-0.035-0.035-0.072-0.072-0.11-0.107
			c0.249-0.387,0.497-0.771,0.827-1.285c-0.61,0.291-1.053,0.5-1.494,0.711c-0.199-0.445-0.398-0.891-0.64-1.434
			c-0.048,0.008-0.274,0.045-0.698,0.111c0.439-0.412,0.752-0.709,1.053-0.994c-0.324,0.033-0.619,0.063-0.916,0.09
			c0.121-0.357,0.24-0.715,0.38-1.133c-0.329-0.232-0.728-0.514-1.122-0.793c0.085-0.393,0.193-0.902,0.311-1.41
			c0.105-0.477,0.223-0.949,0.342-1.443c-0.328-0.178-0.855-0.465-1.455-0.789c0.316-0.152,0.514-0.242,0.839-0.396
			c-0.245-0.133-0.491-0.307-0.516-0.277c-0.575,0.635-1.249,0.154-2.008,0.197c0.329-0.637,0.635-1.221,0.938-1.801
			c-0.063-0.033-0.127-0.066-0.192-0.098c-0.2,0.26-0.4,0.518-0.605,0.777c-0.086-0.039-0.174-0.08-0.262-0.119
			c0.104-0.387,0.209-0.771,0.402-1.482c-0.518,0.297-0.975,0.406-1.173,0.695c-0.974,1.43-2.052,2.824-2.771,4.383
			c-1.572,3.408-2.93,6.918-4.418,10.367c-0.473,1.094-1.078,2.131-1.662,3.271c0.332-0.117,0.602-0.211,0.873-0.307
			c0.062,0.043,0.12,0.09,0.181,0.135c-0.517,0.928-1.036,1.855-1.553,2.783c0.036,0.051,0.068,0.102,0.106,0.152
			c0.707-0.572,1.417-1.145,2.128-1.715c0.053,0.041,0.103,0.082,0.155,0.121c-0.509,0.791-1.018,1.582-1.62,2.523
			c0.065-0.305,0.101-0.459,0.124-0.58c-0.357,0.191-0.74,0.396-1.125,0.604c-0.119-0.117-0.238-0.234-0.359-0.352
			c0.136-0.598,0.271-1.195,0.402-1.771c-0.223-0.047-0.549-0.113-1.062-0.219c-0.691,0.535-1.554,1.268-2.48,1.908
			c-1.917,1.326-2.651,3.471-3.725,5.365c-0.698,1.232-1.144,2.605-1.791,3.867c-0.438,0.855-1.11,1.592-1.533,2.453
			c-0.314,0.637-0.558,1.396-0.532,2.09c0.033,0.867-0.142,1.51-0.787,2.098c-0.674,0.613-1.393,1.238-1.854,2.002
			c-0.971,1.615-2.134,2.971-3.739,4.002c-0.476,0.307-0.629,1.1-0.965,1.646c-0.227,0.365-0.514,0.691-0.851,1.139
			c0.524,0.604,0.048,1.006-0.616,1.303c-1.672,0.749-2.896,1.991-3.857,3.502c-0.23,0.365-0.219,0.875-0.424,1.266
			c-0.225,0.42-0.552,0.791-0.863,1.158c-0.758,0.889-1.53,1.762-2.394,2.752c3.673-0.297,6.796-1.541,9.887-2.887
			c2.144-0.934,4.319-1.797,6.433-2.789c1.307-0.615,2.557-1.367,3.775-2.145c1.129-0.723,2.225-1.239,3.646-1.342
			c1.781-0.131,3.605-0.563,4.98-2.135C164.602,110.32,163.664,110.223,162.728,110.129z M65.215,81.41
			c6.609-1.801,13.204-3.662,19.831-5.412c18.835-4.98,37.682-9.918,56.521-14.871c0.359-0.094,0.717-0.199,1.172-0.328
			c-0.482-0.623-0.9-1.16-1.318-1.695c-0.023-0.125-0.045-0.25-0.07-0.373c0.313-0.027,0.642-0.012,0.936-0.1
			c0.152-0.047,0.247-0.279,0.369-0.428c-0.188-0.109-0.368-0.285-0.565-0.311c-0.239-0.031-0.497,0.066-0.745,0.109
			c-17.126,2.916-34.07,6.684-50.943,10.803c-0.892,0.217-1.785,0.414-2.723,0.414c17.665-5.316,35.662-9.209,53.861-12.604
			c-0.193-0.268-0.331-0.461-0.457-0.637c0.033-0.096,0.038-0.188,0.076-0.205c0.656-0.313,0.621-0.742,0.297-1.307
			c-0.169-0.291-0.191-0.67-0.314-1.137c-0.706,0.084-1.664,0.18-2.619,0.311c-21.246,2.889-41.635,8.746-61.033,17.889
			c-5.873,2.77-11.512,6.047-17.234,9.131c-0.454,0.246-0.74,0.801-1.265,1.391C61.292,82.334,63.265,81.939,65.215,81.41z
			 M201.527,154.335c-0.716-12.084-1.475-24.163-2.132-36.249c-0.236-4.357-0.107-8.76,1.479-12.874
			c0.844-2.18,0.018-4.137,0.07-6.311c-1.738,0.094-2.824-1.746-4.732-1.492c0,0.947-0.004,1.85,0,2.754
			c0.071,14.672-1.35,29.186-4.533,43.523c-0.572,2.57-0.814,5.18-0.063,7.77c0.715,2.441,2.318,3.977,4.947,4.645
			c-0.034-0.461-0.057-0.82-0.086-1.176c-1.491-18.325-1.059-36.577,2.037-54.73c0.082-0.486-0.258-1.295,0.67-1.436
			c0.056,0.516,0.223,1.047,0.146,1.541c-3.012,19.663-3.717,39.381-1.609,59.179c0.186,1.723,0.436,3.449,0.814,5.135
			c0.499,2.238,1.615,4.098,3.895,5.223C202.124,164.593,201.831,159.464,201.527,154.335z M205.94,105.051
			c-0.197,0.432-0.694,0.887-1.14,1c-0.593,0.15-0.714,0.395-0.79,0.932c-1.058,7.467-0.646,14.874,0.449,22.313
			c2.232,15.132,2.796,30.354,2.184,45.64c-0.117,2.961,0.435,5.953,0.743,8.924c0.057,0.529,0.344,1.107,0.691,1.52
			c0.75,0.887,1.61,0.756,2.038-0.328c0.322-0.811,0.592-1.693,0.629-2.557c0.194-4.525,0.402-9.055,0.432-13.586
			c0.072-12.277-1.332-24.471-2.254-36.696c-0.655-8.672-1.057-17.359-1.586-26.042c-0.08-1.309-0.232-2.617-0.352-3.926
			c-0.043,0.016-0.088,0.031-0.135,0.047C206.562,103.217,206.345,104.178,205.94,105.051z M200.562,116.114
			c0.305,7.682,0.748,15.359,1.146,23.041c0.71,13.817,1.434,27.634,2.151,41.45c0.029,0.566,0.063,1.135,0.111,1.699
			c0.092,1.076,0.893,1.67,1.908,1.324c0.258-0.088,0.599-0.57,0.557-0.813c-1.346-7.912-0.061-15.857-0.299-23.783
			c-0.348-11.711-1.357-23.351-3.177-34.917c-0.905-5.748-1.03-11.469-0.071-17.213c0.189-1.125,0.16-1.133-0.715-2.037
			C200.882,108.576,200.411,112.322,200.562,116.114z M156.099,88.486c5.113-2.375,9.061-5.885,10.768-11.504
			c0.629-2.08,1.076-4.215,1.729-6.287c0.957-3.027,2.418-5.758,5.293-7.734c-2.094-0.24-3.99-0.213-5.805,0.451
			c-8.236,3.016-13.361,10.5-13.898,18.922c-0.063,1.002,0.102,2.023,0.242,3.023c0.052,0.377,0.346,0.719,0.499,1.086
			c0.175,0.41,0.316,0.836,0.472,1.252c-0.056,0.021-0.113,0.043-0.172,0.064C155.481,87.971,155.735,88.184,156.099,88.486z
			 M96.844,82.414c2.44,0.506,4.837,0.127,7.226-0.328c10.445-1.984,19.535-6.598,27.164-14.035
			c0.244-0.238,0.467-0.492,0.604-0.635c-12.17,4.404-24.435,8.842-36.727,13.291C95.28,81.766,95.673,82.17,96.844,82.414z
			 M128.821,65.58c-4.063,1.059-8.146,2.055-12.18,3.217c-1.472,0.424-2.809,1.303-4.251,1.871
			c-9.55,3.76-19.122,7.467-28.958,10.438c-0.574,0.174-1.17,0.293-1.717,0.525c-0.314,0.135-0.551,0.443-0.825,0.672
			c0.395,0.436,0.767,0.896,1.202,1.285c0.102,0.094,0.423-0.027,0.63-0.092c13.69-4.268,27.293-8.791,40.669-13.967
			c3.271-1.264,6.543-2.521,9.775-3.877c0.953-0.398,1.771-1.125,2.652-1.699c-0.025-0.055-0.051-0.109-0.076-0.162
			C133.437,64.387,131.128,64.98,128.821,65.58z M191.027,125.799c1.136-6.639,2.163-13.305,3.54-19.895
			c0.692-3.324-0.028-6.568,0.212-9.84c0.027-0.369-0.054-0.748-0.083-1.123c-0.185,0.041-0.367,0.08-0.551,0.119
			c-0.191,0.795-0.356,1.598-0.58,2.381c-1.793,6.307-3.502,12.639-4.346,19.149c-0.771,5.959-1.369,11.939-1.944,17.922
			c-0.233,2.426,0.007,4.852,0.94,7.155c0.059,0.141,0.123,0.277,0.133,0.301C189.236,136.596,190.105,131.194,191.027,125.799z
			 M134.726,66.029c-0.361,0.133-0.689,0.43-0.96,0.719c-4.786,5.09-10.345,9.094-16.665,12.068
			c-1.391,0.654-2.679,1.521-4.008,2.301c-0.753,0.441-1.228,1.248-0.791,1.912c0.324,0.488,1.278,0.723,1.965,0.754
			c0.57,0.025,1.215-0.33,1.738-0.656c9.129-5.678,18.244-11.375,27.358-17.076c0.785-0.492,0.831-0.875,0.251-1.582
			c-0.395-0.479-0.791-0.953-1.028-1.24C139.948,64.164,137.33,65.076,134.726,66.029z M195.915,85.328
			c-0.57,1.27-1.152,2.529-1.705,3.803c-0.117,0.271-0.281,0.672-0.168,0.867c0.743,1.291,0.221,2.512-0.104,3.75
			c-0.039,0.146-0.081,0.291,0.048,0.592c0.217-0.201,0.504-0.363,0.645-0.607c0.929-1.607,1.2-3.365,1.126-5.195
			c-0.014-0.33-0.02-0.66-0.031-1.125c0.84,1.4,0.559,3.275-0.831,6.641c0.415,0.932,0.773,1.734,1.142,2.559
			c0.723-0.082,1.581-0.18,2.494-0.281c-0.497-3.508-1.02-7.176-1.541-10.84c0.104-0.035,0.211-0.064,0.314-0.098
			c0.113,0.301,0.283,0.59,0.332,0.9c0.541,3.365,1.079,6.729,1.57,10.1c0.093,0.629,0.38,0.957,0.927,1.152
			c0.823,0.297,1.239,0.025,1.069-0.846c-0.691-3.523-1.426-7.041-2.172-10.557c-0.178-0.84-0.464-1.658-0.7-2.486
			c0.088-0.037,0.178-0.074,0.266-0.109c0.147,0.281,0.31,0.555,0.437,0.846c1.688,3.904,2.355,8.029,2.744,12.232
			c0.191,2.063,0.581,4.109,0.856,6.164c0.109,0.824,0.62,1.191,1.36,1.35c1.02,0.219,1.408-0.193,1.284-1.213
			c-0.049-0.414,0.159-0.857,0.247-1.289c0.223-1.102,0.456-2.203,0.656-3.309c0.038-0.203-0.029-0.436-0.08-0.645
			c-1.427-5.951-4.242-11.184-8.196-15.828c-0.097-0.111-0.231-0.188-0.328-0.262C197.013,82.863,196.466,84.096,195.915,85.328z
			 M154.302,63.953c1.315-2.885,3.297-5.131,6.305-6.348c0.551-0.225,1.102-0.455,1.652-0.688c0.018-0.008,0.02-0.047,0.002,0
			c-0.447-0.227-0.891-0.449-1.446-0.73c-1.856,1.029-3.891,2.107-5.866,3.279c-0.748,0.445-1.421,1.051-2.041,1.672
			c-0.953,0.961-0.758,1.52,0.57,1.854c0.293,0.076,0.596,0.129,0.902,0.313c-0.609,0.541-1.287,0.623-2.02,0.332
			c-0.621-0.248-0.764-0.752-0.771-1.379c-0.005-0.361-0.157-0.734-0.31-1.074c-0.193-0.426-0.453-0.822-0.707-1.268
			c-1.534,0.398-3.113,0.738-4.641,1.236c-0.789,0.258-1.563,0.709-2.188,1.252c-0.227,0.197-0.14,0.992,0.061,1.379
			c0.248,0.475,0.766,0.809,1.155,1.191c1.314-0.68,2.585-1.336,3.858-1.994c0.061,0.096,0.125,0.193,0.188,0.287
			c-1.175,0.906-2.351,1.809-3.548,2.729c1.088,1.535,2.58,2.393,4.393,2.869c2.005,0.527,3.964,1.232,5.949,1.842
			c0.836,0.254,1.045-0.59,1.514-0.955c0.328-0.256,0.548-0.648,0.975-1.178c-0.495-0.283-1.079-0.527-1.549-0.908
			c-0.506-0.414-0.907-0.955-1.355-1.439C153.903,65.77,153.649,65.383,154.302,63.953z M192.321,96.598
			c-1.359,3.465-2.83,6.895-4.018,10.42c-2.221,6.592-3.623,13.381-4.313,20.305c-0.171,1.725-0.073,3.432,1.128,4.836
			c0.254,0.295,0.703,0.422,1.061,0.625c0.198-0.385,0.539-0.76,0.565-1.158c0.755-11.133,2.794-22.051,5.464-32.868
			c0.234-0.957,0.576-1.889,0.868-2.83c-0.082-0.039-0.161-0.076-0.24-0.113C192.661,96.076,192.433,96.313,192.321,96.598z
			 M95.214,74.273c-9.078,2.35-18.153,4.703-27.232,7.051c-0.491,0.127-1.174,0.238-0.966,0.855c0.137,0.41,0.78,0.877,1.228,0.91
			c0.929,0.07,1.883-0.113,2.82-0.227c5.007-0.598,9.881-1.803,14.619-3.48c7.561-2.674,15.079-5.469,22.613-8.213
			c-0.027-0.08-0.053-0.158-0.081-0.24C103.881,72.045,99.545,73.152,95.214,74.273z M144.479,83.262
			c0.289,0.551,0.776,0.457,1.263,0.127c2.29-1.559,4.591-3.105,6.829-4.738c0.387-0.281,0.48-0.969,0.703-1.469
			c0.511-1.137,0.975-2.297,1.542-3.402c0.374-0.725,0.897-1.371,1.288-1.955c-0.3-1.623-1.832-0.912-2.678-1.52
			c-0.111-0.082-0.434-0.014-0.563,0.096c-2.408,2.021-4.842,4.014-7.182,6.109c-1.711,1.531-3.269,3.229-4.941,4.799
			c-0.734,0.689-0.642,1.234-0.014,1.898c0.783,0.828,1.491,1.023,2.215,0.393c0.66-0.576,1.216-1.271,1.816-1.914
			c2.14-2.279,4.436-4.381,7.119-6.016c0.57-0.346,1.217-0.563,1.83-0.842c0.077,0.121,0.15,0.24,0.228,0.359
			C150.522,77.537,146.958,79.713,144.479,83.262z M199.201,51.24c-2.762,1.711-4.966,3.902-5.966,7.109
			c-0.396,1.275-0.676,2.547-0.164,3.885c0.471,1.23,1.331,2.029,2.576,2.268c1.166,0.225,2.373,0.256,3.565,0.301
			c0.205,0.01,0.509-0.297,0.618-0.525c0.745-1.551,0.815-3.201,0.76-4.893c-0.059-1.814,0-3.635,0.047-5.449
			c0.012-0.396,0.206-0.787,0.348-1.301C200.417,52.189,199.851,51.746,199.201,51.24z M193.14,120.088
			c-0.969,5.424-1.912,10.854-2.891,16.277c-0.332,1.855-0.824,3.689-1.094,5.554c-0.189,1.287-0.014,2.574,1.205,3.494
			c2.594-11.435,4.259-22.958,4.494-34.681C194.281,113.85,193.698,116.967,193.14,120.088z M139.325,129.362
			c0.25-0.193,0.636-0.213,0.962-0.314c-0.011,0.34,0.103,0.764-0.056,1.006c-0.961,1.432-1.972,2.832-2.994,4.221
			c-0.295,0.404-0.664,0.758-1.033,1.1c-1.564,1.463-2.012,3.262-1.578,5.517c2.104-2.534,4.135-4.978,6.164-7.425
			c-0.08-0.07-0.165-0.143-0.246-0.213c-0.995,0.891-1.994,1.781-3.061,2.738c1.746-2.375,3.541-4.598,5.088-6.979
			c1.546-2.387,2.85-4.932,4.137-7.502c-1.51,0.906-3.015,1.754-4.072,3.186c-0.15,0.205-0.429,0.313-0.648,0.467
			c0.039-0.285-0.008-0.623,0.133-0.842c0.445-0.682,0.957-1.318,1.453-1.969c0.223-0.289,0.467-0.563,0.777-0.932
			c-1.094,0-1.658,0.594-2.111,1.289c-1.354,2.082-2.66,4.201-4.027,6.279c-0.505,0.77-1.13,1.461-1.703,2.189
			c0.109,0.094,0.217,0.193,0.326,0.289C137.663,130.76,138.47,130.03,139.325,129.362z M188.624,102.748
			c-0.721,1.115-1.487,2.203-2.156,3.35c-2.416,4.145-4.259,8.532-5.115,13.268c-0.242,1.33-0.158,2.754-0.008,4.111
			c0.112,1.041,0.824,1.797,1.959,2.145C184.329,117.792,186.228,110.24,188.624,102.748z M166.3,50.563
			c-1.494,0.881-2.98,1.777-4.512,2.59c-0.768,0.408-0.968,0.898-0.646,1.607c2.578-1.611,5.283-2.891,8.129-3.869
			c0.044,0.08,0.088,0.16,0.133,0.242c-0.281,0.143-0.557,0.295-0.844,0.428c-1.908,0.904-3.836,1.775-5.729,2.713
			c-1.07,0.531-1.082,0.688-0.617,1.475c0.902-0.594,1.747-1.328,2.727-1.756c1.295-0.566,2.691-0.9,4.048-1.311
			c0.179-0.055,0.399,0.027,0.604,0.045c-0.07,0.219-0.071,0.537-0.222,0.639c-0.382,0.26-0.817,0.455-1.254,0.619
			c-1.294,0.488-2.6,0.957-3.904,1.416c-0.818,0.287-0.896,0.834-0.627,1.588c2.68-1.092,5.322-2.168,8.074-3.289
			c-0.328-1.666-1.474-2.959-3.299-3.686c-0.408-0.162-0.835-0.285-1.263-0.402c-0.83-0.232-1.522-0.295-2.277,0.461
			c-0.733,0.738-1.815,1.115-2.71,1.703c-0.666,0.438-1.276,0.961-1.797,1.582c2.182-1.23,4.363-2.459,6.545-3.689
			c0.063,0.098,0.127,0.195,0.192,0.295C166.802,50.164,166.574,50.402,166.3,50.563z M186.39,102.635
			c-2.071,3.268-3.977,6.65-5.76,10.084c-0.677,1.303-0.902,2.87-1.173,4.344c-0.189,1.039,0.081,2.068,0.884,2.904
			c0.464-1.688,0.875-3.354,1.374-4.992c1.735-5.688,4.101-11.047,8.12-15.553c0.501-0.566,0.74-1.365,1.101-2.057
			c-0.079-0.047-0.159-0.094-0.237-0.141C189.247,99.02,187.616,100.697,186.39,102.635z M141.964,54.225
			c0.229,0.553,0.423,1.02,0.622,1.504c-0.247,0.16-0.46,0.301-0.676,0.439c0.013,0.082,0.028,0.162,0.041,0.244
			c0.292-0.002,0.603,0.055,0.876-0.02c3.072-0.832,6.145-1.664,9.205-2.539c1.4-0.4,2.771-0.9,4.156-1.354
			c-0.029-0.141-0.061-0.279-0.09-0.42c-4.566,0.35-9.13,0.699-13.872,1.064C142.494,53.699,142.696,54.156,141.964,54.225z
			 M157.409,49.061c-4.89,0.506-9.758,1.174-14.633,1.811c-0.309,0.041-0.579,0.355-0.867,0.541c0.042,0.1,0.084,0.199,0.129,0.297
			c0.582-0.064,1.164-0.131,1.748-0.193c5.738-0.637,11.492-0.975,17.268-0.873c0.23,0.004,0.508-0.035,0.68-0.164
			c0.521-0.389,0.998-0.832,1.692-1.422C161.282,49.045,159.323,48.861,157.409,49.061z M147.316,85.225
			c-0.382,0.375-0.604,0.955-0.78,1.48c-0.101,0.309-0.061,0.953,0.068,0.996c0.438,0.146,1.109,0.309,1.398,0.084
			c1.715-1.326,3.358-2.748,4.998-4.168c0.371-0.32,0.104-1.014-0.133-1.473c-0.184-0.354-0.027-0.906,0.045-1.359
			c0.057-0.332,0.22-0.648,0.338-0.973c-0.05-0.027-0.097-0.055-0.141-0.082C151.175,81.557,149.215,83.359,147.316,85.225z
			 M154.358,90.254c-1.019,0.961-2.148,2.008-3.254,3.08c-1.063,1.031-1.211,2.307-0.861,3.672c0.188,0.742,0.65,1.234,1.473,1.221
			c0.848-0.014,1.344-0.525,1.536-1.297c0.294-1.189,0.472-2.408,0.802-3.586c0.162-0.586,0.52-1.129,0.843-1.656
			c0.271-0.445,0.618-0.844,0.94-1.271C155.313,90.357,154.884,90.311,154.358,90.254z M143.375,59.055
			c-0.284,0.01-0.556,0.021-0.959,0.037c0.214,0.443,0.298,0.791,0.514,1.023c0.19,0.213,0.563,0.473,0.786,0.42
			c2.229-0.533,4.442-1.127,6.4-1.637c0.172-1.094,0.317-2.008,0.445-2.832c-2.403,0.557-4.963,1.15-7.605,1.762
			C143.071,58.17,143.185,58.494,143.375,59.055z M154.021,88.729c-0.375-1.094-0.73-2.131-1.132-3.301
			c-1.292,1.463-2.589,2.787-3.71,4.246c-1.252,1.633-0.992,3,0.498,3.752C151.185,91.795,152.631,90.232,154.021,88.729z
			 M167.157,61.826c0.84,0.113,1.537,0.211,2.236,0.307c0.019-0.084,0.039-0.168,0.058-0.252c-0.276-0.146-0.553-0.291-0.828-0.436
			c0.013-0.035,0.026-0.07,0.042-0.105c0.48,0.109,0.961,0.281,1.445,0.301c0.256,0.01,0.514-0.27,0.787-0.375
			c0.205-0.076,0.443-0.129,0.66-0.111c0.637,0.047,1.273,0.135,1.928,0.213c-0.424-1.25-0.809-2.377-1.209-3.553
			c-1.529,1.145-3.396,1.553-5.237,2.018c-0.243,0.063-0.493,0.119-0.724,0.213c-0.634,0.252-1.271,0.525-1.074,1.404
			c0.172,0.768,0.838,1.193,1.697,1.105c0.211-0.021,0.422-0.076,0.733-0.137C167.478,62.195,167.365,62.064,167.157,61.826z
			 M163.915,60.154c-0.275-0.35-0.555-0.701-0.835-1.059c-1.005,0.643-2.056,1.18-2.939,1.918c-0.747,0.623-1.326,1.461-1.933,2.238
			c-0.6,0.766-1.193,1.545-1.697,2.373c-0.744,1.227-0.324,1.873,1.098,1.859C159.014,64.381,161.389,62.24,163.915,60.154z
			 M160.509,55.525c-0.229-0.426-0.471-0.871-0.768-1.42c-2.449,1.131-5.111,1.904-7.248,3.705c-1.19,1.004-1.283,2.014-0.373,3.061
			C154.425,58.324,157.472,56.945,160.509,55.525z M127.636,118.29c1.51-0.311,3.008-0.703,4.531-0.945
			c2.165-0.342,4.346-0.611,6.527-0.836c0.685-0.07,1.23-0.17,1.408-0.807c-1.615-0.113-3.271-0.324-4.929-0.326
			c-3.509-0.004-6.068,0.623-8.87,3.076C126.879,118.385,127.263,118.368,127.636,118.29z M184.757,103.117
			c-0.063-0.051-0.127-0.104-0.192-0.154c-1.163,1.383-2.409,2.711-3.472,4.17c-1.385,1.904-2.783,3.83-3.306,6.203
			c-0.231,1.04-0.212,2.034,0.581,2.971C179.897,111.543,182.091,107.217,184.757,103.117z M162.418,57.762
			c-0.575,0.254-1.122,0.598-1.72,0.773c-2.9,0.861-4.592,3.068-6.127,5.445c-0.113,0.176-0.041,0.586,0.095,0.781
			c0.226,0.326,0.576,0.566,0.837,0.809c0.543-0.57,1.066-1.102,1.568-1.656c0.291-0.324,0.672-0.641,0.803-1.029
			c0.77-2.326,2.76-3.311,4.678-4.4c0.277-0.16,0.48-0.453,0.718-0.682c-0.067-0.09-0.134-0.176-0.201-0.264
			C162.852,57.613,162.624,57.67,162.418,57.762z M172.229,56.842c-0.064-0.471-0.136-1.021-0.217-1.635
			c-1.311,0.436-2.577,0.861-3.847,1.277c-0.928,0.303-1.854,0.613-2.794,0.875c-1.617,0.451-1.785,0.826-1.033,2.313
			C166.942,58.738,169.534,57.807,172.229,56.842z M127.908,121.737c1.693-0.146,3.117,0.58,4.544-0.32
			c1.254-0.787,2.576-1.459,3.881-2.156c0.543-0.287,1.119-0.506,1.791-0.807C134.184,117.973,131.149,119.69,127.908,121.737z
			 M134.958,125.182c0.773,0.836,1.261,2.172,1.225,3.793c1.766-1.777,2.859-3.969,4.188-5.996
			c-0.074-0.098-0.146-0.197-0.222-0.293C138.394,123.528,136.642,124.372,134.958,125.182z M165.896,63.068
			c-0.518-0.475-1.175-1.076-1.864-1.713c-1.536,1.344-3.128,2.717-4.696,4.117c-0.488,0.436-0.796,0.975-0.418,1.861
			c0.781-0.434,1.532-0.848,2.486-1.379c-0.15-0.092-0.341-0.207-0.408-0.248C162.757,64.758,164.339,63.906,165.896,63.068z
			 M158.386,52.246c-1.746,0.881-3.479,1.795-5.164,2.785c-0.722,0.424-1.389,1.002-1.943,1.629
			c-0.346,0.389-0.438,1.004-0.504,1.596c2.278-2.543,5.327-3.545,8.327-4.68c0.528-0.199,0.845-0.961,1.261-1.463
			c-0.074-0.115-0.148-0.232-0.225-0.348C159.552,51.92,158.913,51.98,158.386,52.246z M179.833,106.939
			c-3.205,1.104-3.824,2.988-2.435,5.475C178.276,110.438,179.072,108.654,179.833,106.939z M150.007,122.674
			c-3.148,2.336-5.568,5.301-7.416,8.707C145.063,128.481,147.538,125.577,150.007,122.674z M190.245,96.313
			c0.229,0.174,0.456,0.348,0.8,0.611c0.999-1.824,2.667-3.264,2.245-5.768C192.226,92.959,191.256,94.605,190.245,96.313z
			 M136.678,120.579c-0.459,1.199-1.604,1.404-2.587,1.869c-0.449,0.211-0.881,0.484-1.266,0.797
			c-0.139,0.109-0.115,0.42-0.162,0.635c0.197,0.041,0.414,0.148,0.59,0.102c0.741-0.189,1.475-0.422,2.205-0.66
			c0.098-0.029,0.164-0.176,0.229-0.279c0.522-0.857,1.038-1.719,1.556-2.576c-0.029-0.047-0.061-0.094-0.091-0.141
			C136.989,120.407,136.726,120.454,136.678,120.579z M197.593,48.627c-1.903,0.166-3.757,0.326-5.732,0.5
			C195.114,50.105,195.894,50.037,197.593,48.627z M142.269,111.045c-2.637-0.021-5.196,0.123-7.164,1.842
			C137.376,112.305,139.804,111.68,142.269,111.045z M129.046,123.44c0.03,0.135,0.064,0.27,0.099,0.404
			c0.56-0.053,1.153-0.006,1.675-0.18c1.234-0.41,1.221-0.453,2.277-1.928C131.559,122.385,130.302,122.915,129.046,123.44z
			 M141.134,51.379c-1.538,0.098-3.064,0.24-4.478,0.893C138.17,52.074,139.78,52.301,141.134,51.379z M191.671,51.004
			c-0.181-0.098-0.709,0.037-0.748,0.168c-0.078,0.27-0.023,0.801,0.134,0.869c0.276,0.119,0.665-0.027,1.245-0.09
			C192.013,51.49,191.903,51.133,191.671,51.004z"/>
		<path fill-rule="evenodd" clip-rule="evenodd" fill="#FFFFFF" d="M160.614,112.557c-1.422,0.104-2.518,0.619-3.646,1.342
			c-1.219,0.777-2.469,1.529-3.775,2.145c-2.113,0.992-4.289,1.855-6.433,2.789c-3.091,1.346-6.214,2.59-9.887,2.887
			c0.863-0.99,1.636-1.863,2.394-2.752c0.312-0.367,0.639-0.738,0.863-1.158c0.205-0.391,0.193-0.9,0.424-1.266
			c0.962-1.512,2.186-2.754,3.857-3.502c0.664-0.297,1.141-0.699,0.616-1.303c0.337-0.447,0.624-0.773,0.851-1.139
			c0.336-0.547,0.489-1.34,0.965-1.646c1.605-1.031,2.769-2.387,3.739-4.002c0.462-0.764,1.181-1.389,1.854-2.002
			c0.646-0.588,0.82-1.23,0.787-2.098c-0.025-0.693,0.218-1.453,0.532-2.09c0.423-0.861,1.095-1.598,1.533-2.453
			c0.647-1.262,1.093-2.635,1.791-3.867c1.073-1.895,1.808-4.039,3.725-5.365c0.927-0.641,1.789-1.373,2.48-1.908
			c0.513,0.105,0.839,0.172,1.062,0.219c-0.131,0.576-0.267,1.174-0.402,1.771c0.121,0.117,0.24,0.234,0.359,0.352
			c0.385-0.207,0.768-0.412,1.125-0.604c-0.023,0.121-0.059,0.275-0.124,0.58c0.603-0.941,1.111-1.732,1.62-2.523
			c-0.053-0.039-0.103-0.08-0.155-0.121c-0.711,0.57-1.421,1.143-2.128,1.715c-0.038-0.051-0.07-0.102-0.106-0.152
			c0.517-0.928,1.036-1.855,1.553-2.783c-0.061-0.045-0.119-0.092-0.181-0.135c-0.271,0.096-0.541,0.189-0.873,0.307
			c0.584-1.141,1.189-2.178,1.662-3.271c1.488-3.449,2.846-6.959,4.418-10.367c0.719-1.559,1.797-2.953,2.771-4.383
			c0.198-0.289,0.655-0.398,1.173-0.695c-0.193,0.711-0.299,1.096-0.402,1.482c0.088,0.039,0.176,0.08,0.262,0.119
			c0.205-0.26,0.405-0.518,0.605-0.777c0.065,0.031,0.129,0.064,0.192,0.098c-0.303,0.58-0.608,1.164-0.938,1.801
			c0.759-0.043,1.433,0.438,2.008-0.197c0.024-0.029,0.271,0.145,0.516,0.277c-0.325,0.154-0.522,0.244-0.839,0.396
			c0.6,0.324,1.127,0.611,1.455,0.789c-0.119,0.494-0.236,0.967-0.342,1.443c-0.117,0.508-0.226,1.018-0.311,1.41
			c0.395,0.279,0.793,0.561,1.122,0.793c-0.14,0.418-0.259,0.775-0.38,1.133c0.297-0.027,0.592-0.057,0.916-0.09
			c-0.301,0.285-0.613,0.582-1.053,0.994c0.424-0.066,0.65-0.104,0.698-0.111c0.241,0.543,0.44,0.988,0.64,1.434
			c0.441-0.211,0.884-0.42,1.494-0.711c-0.33,0.514-0.578,0.898-0.827,1.285c0.038,0.035,0.075,0.072,0.11,0.107
			c0.216-0.113,0.433-0.227,0.621-0.326c-0.03,0.318-0.06,0.621-0.092,0.922c0.091,0.033,0.181,0.068,0.269,0.102
			c0.287-0.369,0.574-0.736,0.913-1.174c-0.319,0.902-0.319,0.9,0.424,1.184c0.043,0.018,0.053,0.141,0.098,0.154
			c0.791,0.24,1.535,1.037,2.41,0.42c0.519-0.367,1.104-0.357,1.645-0.527c0.431-0.135,0.807-0.162,0.986-0.652
			c0.043-0.119,0.326-0.15,0.498-0.223c-0.496,0.557-0.662,1.014-0.459,1.803c0.174,0.684,0.364,1.193,1.125,1.32
			c0.309,0.486,0.561,0.828,0.756,1.199c0.235,0.443,0.423,0.91,0.633,1.367c-0.086,0.059-0.174,0.115-0.259,0.174
			c1.217,0.389,2.127,1.08,2.287,2.428c0.466-0.104,0.789-0.174,0.956-0.213c0.379,0.318,0.702,0.59,1.039,0.873
			c-2.422,5.777-5.856,12.094-11.003,16.967c-3.417,3.24-7.052,6.129-11.7,7.432c-1.641,0.459-3.277,0.949-4.915,1.416
			c-0.248,0.072-0.511,0.098-0.765,0.145c0.476-0.375,0.988-0.619,1.468-0.916c0.183-0.113,0.284-0.354,0.423-0.539
			c-0.209-0.1-0.41-0.271-0.623-0.291c-0.797-0.07-1.598-0.094-2.631-0.146c2.287-1.422,4.352-2.727,5.902-4.625
			c-0.063-0.102-0.129-0.201-0.193-0.305c-0.875,0.291-1.746,0.584-2.621,0.875c-0.039-0.066-0.076-0.133-0.115-0.197
			c2.104-1.391,4.154-2.844,6.152-4.369c-0.057-0.074-0.111-0.15-0.169-0.227c-1.227,0.248-2.453,0.498-3.681,0.748
			c-0.021-0.086-0.041-0.17-0.062-0.256c0.26-0.16,0.53-0.305,0.778-0.48c2.082-1.473,4.166-2.941,6.229-4.439
			c0.25-0.18,0.383-0.529,0.568-0.799c-0.307-0.102-0.618-0.186-0.916-0.307c-0.297-0.119-0.805-0.25-0.82-0.418
			c-0.053-0.506,0.045-1.043,0.168-1.547c0.193-0.797,0.417-1.59,0.704-2.355c0.129-0.346,0.382-0.732,0.687-0.914
			c1.642-0.977,1.99-1.746,1.55-3.68c-0.255-1.107-1.085-1.775-2.286-1.836c-0.988-0.051-1.875,0.594-2.127,1.666
			c-0.252,1.066-0.469,2.148-0.592,3.238c-0.213,1.924-0.081,3.969-2.195,5.119c1.396,0.006,1.978-1.109,2.838-1.875
			c-0.311,0.939-0.719,1.814-1.084,2.707c-0.094,0.223-0.055,0.5-0.076,0.754c0.252-0.051,0.546-0.033,0.745-0.166
			c0.302-0.203,0.54-0.508,0.663-0.631c0.475,0.295,0.869,0.537,1.498,0.928c-2.639,1.865-5.156,3.646-7.904,5.592
			c1.193,0.059,2.189,0.109,3.325,0.168c-1.675,1.273-3.274,2.488-4.874,3.703c0.025,0.076,0.047,0.152,0.072,0.227
			c0.537,0.031,1.071,0.061,1.916,0.107c-1.957,1.379-3.704,2.609-5.451,3.84c0.004,0.076,0.007,0.156,0.01,0.234
			c0.937,0.094,1.874,0.191,2.867,0.293C164.22,111.994,162.396,112.426,160.614,112.557z M167.703,88.021
			c-1.444,0.338-1.604,1.658-2.175,2.668c-0.526,0.813-1.055,1.619-1.698,2.598c1.366,0.035,2.28-1.111,3.554-0.537
			c0.125-0.189,0.34-0.512,0.554-0.834c-0.026-0.07-0.056-0.143-0.085-0.211c-0.939,0.301-1.879,0.604-2.821,0.904
			c-0.083-0.047-0.165-0.096-0.247-0.143c0.247-0.6,0.493-1.197,0.739-1.795C166.251,89.789,166.979,88.904,167.703,88.021z
			 M177.03,102.551c-0.727,0.691-1.473,1.344-1.592,2.555c0.256-0.074,0.436-0.072,0.512-0.156c1.084-1.217,2.556-1.783,3.964-2.494
			c1.163-0.588,2.249-1.35,3.298-2.135c0.365-0.273,0.617-0.807,0.746-1.268c0.17-0.605-0.156-1.129-0.805-1.117
			c-2.512,0.053-4.906,0.461-6.604,2.605c-0.116,0.148-0.28,0.279-0.339,0.447c-0.078,0.234-0.077,0.496-0.111,0.744
			c0.233-0.082,0.539-0.1,0.689-0.262c0.676-0.736,1.441-1.283,2.584-1.295C178.593,100.971,177.836,101.785,177.03,102.551z
			 M148.354,113.676c0.043,0.105,0.089,0.213,0.131,0.32c4.557-1.874,9.11-3.745,13.666-5.616c-0.07-0.18-0.14-0.359-0.208-0.537
			C157.413,109.789,152.884,111.732,148.354,113.676z M168.606,94.293c-0.072-0.137-0.143-0.27-0.212-0.406
			c-0.142,0.16-0.253,0.385-0.429,0.471c-0.736,0.357-1.196,1.275-2.236,1.07c-0.131-0.025-0.381,0.559-0.422,1.027
			c0.801-0.449,1.601-0.898,2.53-1.422c-0.378,0.85-0.694,1.561-1.112,2.5c1.669-0.582,2.73-1.48,3.371-2.898
			c-0.75,0.67-1.498,1.34-2.247,2.01c-0.071-0.057-0.144-0.113-0.214-0.17C167.959,95.746,168.282,95.02,168.606,94.293z
			 M157.163,112.07c-3.357,0.91-6.459,2.407-9.439,4.223C150.87,114.885,154.017,113.479,157.163,112.07z M171.19,95.969
			c-0.928-0.072-6.572,3.406-7.688,4.943C166.081,99.252,168.661,97.594,171.19,95.969z M139.696,120.092
			c1.681-0.887,4.889-4.352,5.135-5.844C143.112,116.204,141.394,118.163,139.696,120.092z M161.991,93.125
			c-0.106-0.096-0.219-0.189-0.324-0.285c-1.98,2.313-3.959,4.625-5.938,6.936c0.072,0.064,0.144,0.129,0.217,0.189
			C157.961,97.686,159.976,95.404,161.991,93.125z M153.634,104.254c3.055-1.57,5.655-3.428,7.799-5.889
			C158.884,100.289,156.335,102.211,153.634,104.254z M156.157,104.582c0.044,0.08,0.09,0.162,0.133,0.24
			c1.888-1.051,3.773-2.102,5.663-3.154c-0.06-0.104-0.116-0.207-0.172-0.311C159.905,102.432,158.031,103.508,156.157,104.582z
			 M164.208,105.014c0-0.006,0-0.012,0-0.016c-2.377,1.021-4.754,2.047-7.129,3.07c-0.008-0.004-0.01-0.01-0.015-0.016
			C159.446,107.041,161.829,106.025,164.208,105.014z M146.647,113.15c0.732-1.189,1.463-2.377,2.195-3.568
			C147.647,110.49,146.905,111.674,146.647,113.15z M143.858,119.245c0.042,0.064,0.088,0.133,0.13,0.199
			c0.88-0.578,1.756-1.16,2.632-1.738c-0.06-0.088-0.119-0.176-0.18-0.264C145.579,118.043,144.718,118.643,143.858,119.245z"/>
		<path fill-rule="evenodd" clip-rule="evenodd" d="M58.99,82.051c2.302,0.283,4.274-0.111,6.225-0.641
			c6.609-1.801,13.204-3.662,19.831-5.412c18.835-4.98,37.682-9.918,56.521-14.871c0.359-0.094,0.717-0.199,1.172-0.328
			c-0.482-0.623-0.9-1.16-1.318-1.695c-0.023-0.125-0.045-0.25-0.07-0.373c0.313-0.027,0.642-0.012,0.936-0.1
			c0.152-0.047,0.247-0.279,0.369-0.428c-0.188-0.109-0.368-0.285-0.565-0.311c-0.239-0.031-0.497,0.066-0.745,0.109
			c-17.126,2.916-34.07,6.684-50.943,10.803c-0.892,0.217-1.785,0.414-2.723,0.414c17.665-5.316,35.662-9.209,53.861-12.604
			c-0.193-0.268-0.331-0.461-0.457-0.637c0.033-0.096,0.038-0.188,0.076-0.205c0.656-0.313,0.621-0.742,0.297-1.307
			c-0.169-0.291-0.191-0.67-0.314-1.137c-0.706,0.084-1.664,0.18-2.619,0.311c-21.246,2.889-41.635,8.746-61.033,17.889
			c-5.873,2.77-11.512,6.047-17.234,9.131C59.801,80.906,59.515,81.461,58.99,82.051z"/>
		<path fill-rule="evenodd" clip-rule="evenodd" fill="#3E3A39" d="M202.431,169.837c-0.307-5.244-0.6-10.373-0.903-15.502
			c-0.716-12.084-1.475-24.163-2.132-36.249c-0.236-4.357-0.107-8.76,1.479-12.874c0.844-2.18,0.018-4.137,0.07-6.311
			c-1.738,0.094-2.824-1.746-4.732-1.492c0,0.947-0.004,1.85,0,2.754c0.071,14.672-1.35,29.186-4.533,43.523
			c-0.572,2.57-0.814,5.18-0.063,7.77c0.715,2.441,2.318,3.977,4.947,4.645c-0.034-0.461-0.057-0.82-0.086-1.176
			c-1.491-18.325-1.059-36.577,2.037-54.73c0.082-0.486-0.258-1.295,0.67-1.436c0.056,0.516,0.223,1.047,0.146,1.541
			c-3.012,19.663-3.717,39.381-1.609,59.179c0.186,1.723,0.436,3.449,0.814,5.135C199.035,166.853,200.151,168.712,202.431,169.837z
			"/>
		<path fill-rule="evenodd" clip-rule="evenodd" d="M206.851,102.291c-0.289,0.926-0.506,1.887-0.91,2.76
			c-0.197,0.432-0.694,0.887-1.14,1c-0.593,0.15-0.714,0.395-0.79,0.932c-1.058,7.467-0.646,14.874,0.449,22.313
			c2.232,15.132,2.796,30.354,2.184,45.64c-0.117,2.961,0.435,5.953,0.743,8.924c0.057,0.529,0.344,1.107,0.691,1.52
			c0.75,0.887,1.61,0.756,2.038-0.328c0.322-0.811,0.592-1.693,0.629-2.557c0.194-4.525,0.402-9.055,0.432-13.586
			c0.072-12.277-1.332-24.471-2.254-36.696c-0.655-8.672-1.057-17.359-1.586-26.042c-0.08-1.309-0.232-2.617-0.352-3.926
			C206.942,102.26,206.897,102.275,206.851,102.291z"/>
		<path fill-rule="evenodd" clip-rule="evenodd" fill="#595757" d="M135.751,81.926c0.229,0.162,0.452,0.332,0.687,0.488
			c1.302,0.861,1.927,0.721,3.024-0.387c2.951-2.969,5.906-5.938,8.949-8.813c1.227-1.156,2.684-2.07,4.071-3.119
			c-0.925-0.217-1.876-0.51-2.849-0.646c-1.846-0.258-3.338-1.092-4.49-2.533c-0.328-0.41-0.584-0.412-1.02-0.143
			c-8.662,5.363-17.335,10.711-26.004,16.064c-0.177,0.109-0.34,0.248-0.568,0.416c1.137,0.824,2.348,0.994,3.555,0.676
			c1.24-0.33,2.521-0.709,3.611-1.357c4.365-2.6,8.59-5.412,12.023-9.234c0.799-0.891,1.553-1.818,2.339-2.721
			c0.19-0.219,0.423-0.398,0.635-0.596c0.098,0.072,0.198,0.143,0.294,0.215c-0.547,0.914-1.021,1.885-1.658,2.734
			c-2.502,3.342-5.898,5.643-9.352,7.865c-0.818,0.527-1.643,1.053-2.449,1.57c0.519,1.461,1.604,2.201,3.117,1.787
			c1.375-0.377,2.736-0.975,3.957-1.719c3.818-2.334,6.799-5.578,9.461-9.133c0.244-0.326,0.535-0.617,0.807-0.924
			c0.108,0.068,0.215,0.139,0.32,0.209c-0.352,0.584-0.676,1.188-1.057,1.752c-1.818,2.693-4.102,4.932-6.688,6.881
			c-0.263,0.197-0.47,0.469-0.702,0.707C135.765,81.969,135.751,81.926,135.751,81.926z"/>
		<path fill-rule="evenodd" clip-rule="evenodd" d="M202.173,104.865c-1.291,3.711-1.762,7.457-1.611,11.249
			c0.305,7.682,0.748,15.359,1.146,23.041c0.71,13.817,1.434,27.634,2.151,41.45c0.029,0.566,0.063,1.135,0.111,1.699
			c0.092,1.076,0.893,1.67,1.908,1.324c0.258-0.088,0.599-0.57,0.557-0.813c-1.346-7.912-0.061-15.857-0.299-23.783
			c-0.348-11.711-1.357-23.351-3.177-34.917c-0.905-5.748-1.03-11.469-0.071-17.213C203.077,105.777,203.048,105.77,202.173,104.865
			z"/>
		<path fill-rule="evenodd" clip-rule="evenodd" fill="#FFFFFF" d="M155.397,87.695c-0.155-0.416-0.297-0.842-0.472-1.252
			c-0.153-0.367-0.447-0.709-0.499-1.086c-0.141-1-0.305-2.021-0.242-3.023c0.537-8.422,5.662-15.906,13.898-18.922
			c1.814-0.664,3.711-0.691,5.805-0.451c-2.875,1.977-4.336,4.707-5.293,7.734c-0.652,2.072-1.1,4.207-1.729,6.287
			c-1.707,5.619-5.654,9.129-10.768,11.504c-0.363-0.303-0.617-0.516-0.873-0.727C155.284,87.738,155.342,87.717,155.397,87.695z
			 M158.964,78.217c3.847-2.631,7.006-5.879,9.051-10.105C165.417,71.863,162.546,75.357,158.964,78.217z M160.41,80.516
			c2.46-1.533,4.692-3.316,6.481-5.588c-0.101-0.1-0.205-0.203-0.307-0.303C164.526,76.59,162.467,78.553,160.41,80.516z
			 M169.079,65.869c-3.386,1.912-6.072,4.615-8.531,7.467C163.36,70.875,166.218,68.371,169.079,65.869z M159.253,83.785
			c0.078,0.07,0.158,0.143,0.236,0.217c1.819-1.99,3.639-3.977,5.457-5.965c-0.121-0.105-0.24-0.211-0.36-0.318
			C162.81,79.74,161.031,81.762,159.253,83.785z M161.187,74.24c-2.162,1.127-3.344,3.061-4.284,5.146
			C158.331,77.674,159.759,75.955,161.187,74.24z M161.497,69.941c1.662-1.859,3.274-3.773,5.552-4.943
			C164.426,65.775,162.923,67.814,161.497,69.941z M160.323,77.799c-2.078,1.672-3.635,3.775-4.97,6.059
			C157.011,81.838,158.666,79.818,160.323,77.799z M157.972,73.859c0.071,0.059,0.146,0.115,0.218,0.17
			c0.981-1.227,1.966-2.459,2.946-3.688c-0.075-0.064-0.155-0.129-0.232-0.193C159.627,71.154,158.69,72.426,157.972,73.859z
			 M162.91,76.078c1.546-0.865,2.891-1.953,3.933-3.725C165.411,73.711,164.159,74.893,162.91,76.078z M159.388,83.195
			c-0.06-0.043-0.121-0.086-0.18-0.127c-0.783,1.078-1.568,2.158-2.351,3.236c0.065,0.047,0.128,0.094,0.193,0.141
			C157.827,85.361,158.607,84.277,159.388,83.195z"/>
		<path fill-rule="evenodd" clip-rule="evenodd" fill="#3E3A39" d="M95.11,80.707c0.17,1.059,0.563,1.463,1.733,1.707
			c2.44,0.506,4.837,0.127,7.226-0.328c10.445-1.984,19.535-6.598,27.164-14.035c0.244-0.238,0.467-0.492,0.604-0.635
			C119.667,71.82,107.402,76.258,95.11,80.707z"/>
		<path fill-rule="evenodd" clip-rule="evenodd" fill="#3E3A39" d="M135.743,63.791c-2.307,0.596-4.615,1.189-6.922,1.789
			c-4.063,1.059-8.146,2.055-12.18,3.217c-1.472,0.424-2.809,1.303-4.251,1.871c-9.55,3.76-19.122,7.467-28.958,10.438
			c-0.574,0.174-1.17,0.293-1.717,0.525c-0.314,0.135-0.551,0.443-0.825,0.672c0.395,0.436,0.767,0.896,1.202,1.285
			c0.102,0.094,0.423-0.027,0.63-0.092c13.69-4.268,27.293-8.791,40.669-13.967c3.271-1.264,6.543-2.521,9.775-3.877
			c0.953-0.398,1.771-1.125,2.652-1.699C135.794,63.898,135.769,63.844,135.743,63.791z"/>
		<path fill-rule="evenodd" clip-rule="evenodd" fill="#595757" d="M188.349,141.968c0.888-5.372,1.757-10.774,2.679-16.169
			c1.136-6.639,2.163-13.305,3.54-19.895c0.692-3.324-0.028-6.568,0.212-9.84c0.027-0.369-0.054-0.748-0.083-1.123
			c-0.185,0.041-0.367,0.08-0.551,0.119c-0.191,0.795-0.356,1.598-0.58,2.381c-1.793,6.307-3.502,12.639-4.346,19.149
			c-0.771,5.959-1.369,11.939-1.944,17.922c-0.233,2.426,0.007,4.852,0.94,7.155C188.274,141.808,188.339,141.945,188.349,141.968z"
			/>
		<path fill-rule="evenodd" clip-rule="evenodd" fill="#595757" d="M142.586,63.229c-2.638,0.936-5.256,1.848-7.86,2.801
			c-0.361,0.133-0.689,0.43-0.96,0.719c-4.786,5.09-10.345,9.094-16.665,12.068c-1.391,0.654-2.679,1.521-4.008,2.301
			c-0.753,0.441-1.228,1.248-0.791,1.912c0.324,0.488,1.278,0.723,1.965,0.754c0.57,0.025,1.215-0.33,1.738-0.656
			c9.129-5.678,18.244-11.375,27.358-17.076c0.785-0.492,0.831-0.875,0.251-1.582C143.22,63.99,142.823,63.516,142.586,63.229z"/>
		<path fill-rule="evenodd" clip-rule="evenodd" fill="#FFFFFF" d="M197.904,81.855c3.954,4.645,6.77,9.877,8.196,15.828
			c0.051,0.209,0.118,0.441,0.08,0.645c-0.2,1.105-0.434,2.207-0.656,3.309c-0.088,0.432-0.296,0.875-0.247,1.289
			c0.124,1.02-0.265,1.432-1.284,1.213c-0.74-0.158-1.251-0.525-1.36-1.35c-0.275-2.055-0.665-4.102-0.856-6.164
			c-0.389-4.203-1.057-8.328-2.744-12.232c-0.127-0.291-0.289-0.564-0.437-0.846c-0.088,0.035-0.178,0.072-0.266,0.109
			c0.236,0.828,0.522,1.646,0.7,2.486c0.746,3.516,1.48,7.033,2.172,10.557c0.17,0.871-0.246,1.143-1.069,0.846
			c-0.547-0.195-0.834-0.523-0.927-1.152c-0.491-3.371-1.029-6.734-1.57-10.1c-0.049-0.311-0.219-0.6-0.332-0.9
			c-0.104,0.033-0.211,0.063-0.314,0.098c0.521,3.664,1.044,7.332,1.541,10.84c-0.913,0.102-1.771,0.199-2.494,0.281
			c-0.368-0.824-0.727-1.627-1.142-2.559c1.39-3.365,1.671-5.24,0.831-6.641c0.012,0.465,0.018,0.795,0.031,1.125
			c0.074,1.83-0.197,3.588-1.126,5.195c-0.141,0.244-0.428,0.406-0.645,0.607c-0.129-0.301-0.087-0.445-0.048-0.592
			c0.324-1.238,0.847-2.459,0.104-3.75c-0.113-0.195,0.051-0.596,0.168-0.867c0.553-1.273,1.135-2.533,1.705-3.803
			c0.551-1.232,1.098-2.465,1.661-3.734C197.673,81.668,197.808,81.744,197.904,81.855z M205.077,102.09
			c0.723-3.197-1.32-10.885-3.521-12.971C203.696,93.182,205.077,97.449,205.077,102.09z"/>
		<path fill-rule="evenodd" clip-rule="evenodd" fill="#3E3A39" d="M155.386,66.227c-1.482-0.457-1.736-0.844-1.084-2.273
			c1.315-2.885,3.297-5.131,6.305-6.348c0.551-0.225,1.102-0.455,1.652-0.688c0.018-0.008,0.02-0.047,0.002,0
			c-0.447-0.227-0.891-0.449-1.446-0.73c-1.856,1.029-3.891,2.107-5.866,3.279c-0.748,0.445-1.421,1.051-2.041,1.672
			c-0.953,0.961-0.758,1.52,0.57,1.854c0.293,0.076,0.596,0.129,0.902,0.313c-0.609,0.541-1.287,0.623-2.02,0.332
			c-0.621-0.248-0.764-0.752-0.771-1.379c-0.005-0.361-0.157-0.734-0.31-1.074c-0.193-0.426-0.453-0.822-0.707-1.268
			c-1.534,0.398-3.113,0.738-4.641,1.236c-0.789,0.258-1.563,0.709-2.188,1.252c-0.227,0.197-0.14,0.992,0.061,1.379
			c0.248,0.475,0.766,0.809,1.155,1.191c1.314-0.68,2.585-1.336,3.858-1.994c0.061,0.096,0.125,0.193,0.188,0.287
			c-1.175,0.906-2.351,1.809-3.548,2.729c1.088,1.535,2.58,2.393,4.393,2.869c2.005,0.527,3.964,1.232,5.949,1.842
			c0.836,0.254,1.045-0.59,1.514-0.955c0.328-0.256,0.548-0.648,0.975-1.178c-0.495-0.283-1.079-0.527-1.549-0.908
			C156.235,67.252,155.834,66.711,155.386,66.227z"/>
		<path fill-rule="evenodd" clip-rule="evenodd" fill="#595757" d="M192.836,95.814c-0.175,0.262-0.403,0.498-0.515,0.783
			c-1.359,3.465-2.83,6.895-4.018,10.42c-2.221,6.592-3.623,13.381-4.313,20.305c-0.171,1.725-0.073,3.432,1.128,4.836
			c0.254,0.295,0.703,0.422,1.061,0.625c0.198-0.385,0.539-0.76,0.565-1.158c0.755-11.133,2.794-22.051,5.464-32.868
			c0.234-0.957,0.576-1.889,0.868-2.83C192.994,95.889,192.915,95.852,192.836,95.814z"/>
		<path fill-rule="evenodd" clip-rule="evenodd" fill="#3E3A39" d="M108.215,70.93c-4.334,1.115-8.67,2.223-13.001,3.344
			c-9.078,2.35-18.153,4.703-27.232,7.051c-0.491,0.127-1.174,0.238-0.966,0.855c0.137,0.41,0.78,0.877,1.228,0.91
			c0.929,0.07,1.883-0.113,2.82-0.227c5.007-0.598,9.881-1.803,14.619-3.48c7.561-2.674,15.079-5.469,22.613-8.213
			C108.269,71.09,108.243,71.012,108.215,70.93z"/>
		<path fill-rule="evenodd" clip-rule="evenodd" fill="#727171" d="M153.936,75.188c-3.413,2.35-6.978,4.525-9.456,8.074
			c0.289,0.551,0.776,0.457,1.263,0.127c2.29-1.559,4.591-3.105,6.829-4.738c0.387-0.281,0.48-0.969,0.703-1.469
			c0.511-1.137,0.975-2.297,1.542-3.402c0.374-0.725,0.897-1.371,1.288-1.955c-0.3-1.623-1.832-0.912-2.678-1.52
			c-0.111-0.082-0.434-0.014-0.563,0.096c-2.408,2.021-4.842,4.014-7.182,6.109c-1.711,1.531-3.269,3.229-4.941,4.799
			c-0.734,0.689-0.642,1.234-0.014,1.898c0.783,0.828,1.491,1.023,2.215,0.393c0.66-0.576,1.216-1.271,1.816-1.914
			c2.14-2.279,4.436-4.381,7.119-6.016c0.57-0.346,1.217-0.563,1.83-0.842C153.785,74.949,153.858,75.068,153.936,75.188z"/>
		<path fill-rule="evenodd" clip-rule="evenodd" fill="#854B3F" d="M200.985,52.635c-0.568-0.445-1.135-0.889-1.784-1.395
			c-2.762,1.711-4.966,3.902-5.966,7.109c-0.396,1.275-0.676,2.547-0.164,3.885c0.471,1.23,1.331,2.029,2.576,2.268
			c1.166,0.225,2.373,0.256,3.565,0.301c0.205,0.01,0.509-0.297,0.618-0.525c0.745-1.551,0.815-3.201,0.76-4.893
			c-0.059-1.814,0-3.635,0.047-5.449C200.649,53.539,200.844,53.148,200.985,52.635z"/>
		<path fill-rule="evenodd" clip-rule="evenodd" fill="#595757" d="M194.854,110.732c-0.573,3.118-1.156,6.235-1.715,9.356
			c-0.969,5.424-1.912,10.854-2.891,16.277c-0.332,1.855-0.824,3.689-1.094,5.554c-0.189,1.287-0.014,2.574,1.205,3.494
			C192.954,133.979,194.619,122.456,194.854,110.732z"/>
		<path fill-rule="evenodd" clip-rule="evenodd" fill="#FFFFFF" d="M136.835,131.467c0.828-0.707,1.635-1.438,2.49-2.105
			c0.25-0.193,0.636-0.213,0.962-0.314c-0.011,0.34,0.103,0.764-0.056,1.006c-0.961,1.432-1.972,2.832-2.994,4.221
			c-0.295,0.404-0.664,0.758-1.033,1.1c-1.564,1.463-2.012,3.262-1.578,5.517c2.104-2.534,4.135-4.978,6.164-7.425
			c-0.08-0.07-0.165-0.143-0.246-0.213c-0.995,0.891-1.994,1.781-3.061,2.738c1.746-2.375,3.541-4.598,5.088-6.979
			c1.546-2.387,2.85-4.932,4.137-7.502c-1.51,0.906-3.015,1.754-4.072,3.186c-0.15,0.205-0.429,0.313-0.648,0.467
			c0.039-0.285-0.008-0.623,0.133-0.842c0.445-0.682,0.957-1.318,1.453-1.969c0.223-0.289,0.467-0.563,0.777-0.932
			c-1.094,0-1.658,0.594-2.111,1.289c-1.354,2.082-2.66,4.201-4.027,6.279c-0.505,0.77-1.13,1.461-1.703,2.189
			C136.618,131.272,136.726,131.372,136.835,131.467z"/>
		<path fill-rule="evenodd" clip-rule="evenodd" fill="#727171" d="M183.304,125.622c1.025-7.83,2.924-15.381,5.32-22.874
			c-0.721,1.115-1.487,2.203-2.156,3.35c-2.416,4.145-4.259,8.532-5.115,13.268c-0.242,1.33-0.158,2.754-0.008,4.111
			C181.457,124.518,182.169,125.274,183.304,125.622z"/>
		<path fill-rule="evenodd" clip-rule="evenodd" fill="#FFFFFF" d="M167.051,49.963c-0.249,0.201-0.477,0.439-0.751,0.6
			c-1.494,0.881-2.98,1.777-4.512,2.59c-0.768,0.408-0.968,0.898-0.646,1.607c2.578-1.611,5.283-2.891,8.129-3.869
			c0.044,0.08,0.088,0.16,0.133,0.242c-0.281,0.143-0.557,0.295-0.844,0.428c-1.908,0.904-3.836,1.775-5.729,2.713
			c-1.07,0.531-1.082,0.688-0.617,1.475c0.902-0.594,1.747-1.328,2.727-1.756c1.295-0.566,2.691-0.9,4.048-1.311
			c0.179-0.055,0.399,0.027,0.604,0.045c-0.07,0.219-0.071,0.537-0.222,0.639c-0.382,0.26-0.817,0.455-1.254,0.619
			c-1.294,0.488-2.6,0.957-3.904,1.416c-0.818,0.287-0.896,0.834-0.627,1.588c2.68-1.092,5.322-2.168,8.074-3.289
			c-0.328-1.666-1.474-2.959-3.299-3.686c-0.408-0.162-0.835-0.285-1.263-0.402c-0.83-0.232-1.522-0.295-2.277,0.461
			c-0.733,0.738-1.815,1.115-2.71,1.703c-0.666,0.438-1.276,0.961-1.797,1.582c2.182-1.23,4.363-2.459,6.545-3.689
			C166.921,49.766,166.985,49.863,167.051,49.963z"/>
		<path fill-rule="evenodd" clip-rule="evenodd" fill="#727171" d="M190.698,97.225c-1.451,1.795-3.082,3.473-4.309,5.41
			c-2.071,3.268-3.977,6.65-5.76,10.084c-0.677,1.303-0.902,2.87-1.173,4.344c-0.189,1.039,0.081,2.068,0.884,2.904
			c0.464-1.688,0.875-3.354,1.374-4.992c1.735-5.688,4.101-11.047,8.12-15.553c0.501-0.566,0.74-1.365,1.101-2.057
			C190.856,97.318,190.776,97.271,190.698,97.225z"/>
		<path fill-rule="evenodd" clip-rule="evenodd" d="M142.227,53.145c0.268,0.555,0.47,1.012-0.263,1.08
			c0.229,0.553,0.423,1.02,0.622,1.504c-0.247,0.16-0.46,0.301-0.676,0.439c0.013,0.082,0.028,0.162,0.041,0.244
			c0.292-0.002,0.603,0.055,0.876-0.02c3.072-0.832,6.145-1.664,9.205-2.539c1.4-0.4,2.771-0.9,4.156-1.354
			c-0.029-0.141-0.061-0.279-0.09-0.42C151.532,52.43,146.969,52.779,142.227,53.145z"/>
		<path fill-rule="evenodd" clip-rule="evenodd" fill="#FFFFFF" d="M163.426,49.057c-2.144-0.012-4.103-0.195-6.017,0.004
			c-4.89,0.506-9.758,1.174-14.633,1.811c-0.309,0.041-0.579,0.355-0.867,0.541c0.042,0.1,0.084,0.199,0.129,0.297
			c0.582-0.064,1.164-0.131,1.748-0.193c5.738-0.637,11.492-0.975,17.268-0.873c0.23,0.004,0.508-0.035,0.68-0.164
			C162.255,50.09,162.731,49.646,163.426,49.057z"/>
		<path fill-rule="evenodd" clip-rule="evenodd" fill="#727171" d="M153.11,79.73c-1.936,1.826-3.896,3.629-5.794,5.494
			c-0.382,0.375-0.604,0.955-0.78,1.48c-0.101,0.309-0.061,0.953,0.068,0.996c0.438,0.146,1.109,0.309,1.398,0.084
			c1.715-1.326,3.358-2.748,4.998-4.168c0.371-0.32,0.104-1.014-0.133-1.473c-0.184-0.354-0.027-0.906,0.045-1.359
			c0.057-0.332,0.22-0.648,0.338-0.973C153.201,79.785,153.154,79.758,153.11,79.73z"/>
		<path fill-rule="evenodd" clip-rule="evenodd" fill="#727171" d="M155.837,90.416c-0.524-0.059-0.953-0.105-1.479-0.162
			c-1.019,0.961-2.148,2.008-3.254,3.08c-1.063,1.031-1.211,2.307-0.861,3.672c0.188,0.742,0.65,1.234,1.473,1.221
			c0.848-0.014,1.344-0.525,1.536-1.297c0.294-1.189,0.472-2.408,0.802-3.586c0.162-0.586,0.52-1.129,0.843-1.656
			C155.167,91.242,155.515,90.844,155.837,90.416z"/>
		<path fill-rule="evenodd" clip-rule="evenodd" d="M142.956,57.828c0.115,0.342,0.229,0.666,0.419,1.227
			c-0.284,0.01-0.556,0.021-0.959,0.037c0.214,0.443,0.298,0.791,0.514,1.023c0.19,0.213,0.563,0.473,0.786,0.42
			c2.229-0.533,4.442-1.127,6.4-1.637c0.172-1.094,0.317-2.008,0.445-2.832C148.158,56.623,145.599,57.217,142.956,57.828z"/>
		<path fill-rule="evenodd" clip-rule="evenodd" fill="#727171" d="M149.677,93.426c1.508-1.631,2.954-3.193,4.344-4.697
			c-0.375-1.094-0.73-2.131-1.132-3.301c-1.292,1.463-2.589,2.787-3.71,4.246C147.927,91.307,148.187,92.674,149.677,93.426z"/>
		<path fill-rule="evenodd" clip-rule="evenodd" fill="#FFFFFF" d="M167.672,62.418c-0.194-0.223-0.307-0.354-0.515-0.592
			c0.84,0.113,1.537,0.211,2.236,0.307c0.019-0.084,0.039-0.168,0.058-0.252c-0.276-0.146-0.553-0.291-0.828-0.436
			c0.013-0.035,0.026-0.07,0.042-0.105c0.48,0.109,0.961,0.281,1.445,0.301c0.256,0.01,0.514-0.27,0.787-0.375
			c0.205-0.076,0.443-0.129,0.66-0.111c0.637,0.047,1.273,0.135,1.928,0.213c-0.424-1.25-0.809-2.377-1.209-3.553
			c-1.529,1.145-3.396,1.553-5.237,2.018c-0.243,0.063-0.493,0.119-0.724,0.213c-0.634,0.252-1.271,0.525-1.074,1.404
			c0.172,0.768,0.838,1.193,1.697,1.105C167.149,62.533,167.36,62.479,167.672,62.418z"/>
		<path fill-rule="evenodd" clip-rule="evenodd" fill="#595757" d="M157.608,67.484c1.405-3.104,3.78-5.244,6.307-7.33
			c-0.275-0.35-0.555-0.701-0.835-1.059c-1.005,0.643-2.056,1.18-2.939,1.918c-0.747,0.623-1.326,1.461-1.933,2.238
			c-0.6,0.766-1.193,1.545-1.697,2.373C155.767,66.852,156.187,67.498,157.608,67.484z"/>
		<path fill-rule="evenodd" clip-rule="evenodd" fill="#3E3A39" d="M152.12,60.871c2.305-2.547,5.352-3.926,8.389-5.346
			c-0.229-0.426-0.471-0.871-0.768-1.42c-2.449,1.131-5.111,1.904-7.248,3.705C151.303,58.814,151.21,59.824,152.12,60.871z"/>
		<path fill-rule="evenodd" clip-rule="evenodd" fill="#FFFFFF" d="M126.304,118.452c0.575-0.066,0.959-0.084,1.332-0.162
			c1.51-0.311,3.008-0.703,4.531-0.945c2.165-0.342,4.346-0.611,6.527-0.836c0.685-0.07,1.23-0.17,1.408-0.807
			c-1.615-0.113-3.271-0.324-4.929-0.326C131.665,115.372,129.105,115.999,126.304,118.452z"/>
		<path fill-rule="evenodd" clip-rule="evenodd" fill="#727171" d="M178.368,116.307c1.529-4.764,3.723-9.09,6.389-13.19
			c-0.063-0.051-0.127-0.104-0.192-0.154c-1.163,1.383-2.409,2.711-3.472,4.17c-1.385,1.904-2.783,3.83-3.306,6.203
			C177.556,114.375,177.575,115.37,178.368,116.307z"/>
		<path fill-rule="evenodd" clip-rule="evenodd" fill="#595757" d="M163.068,57.539c-0.217,0.074-0.444,0.131-0.65,0.223
			c-0.575,0.254-1.122,0.598-1.72,0.773c-2.9,0.861-4.592,3.068-6.127,5.445c-0.113,0.176-0.041,0.586,0.095,0.781
			c0.226,0.326,0.576,0.566,0.837,0.809c0.543-0.57,1.066-1.102,1.568-1.656c0.291-0.324,0.672-0.641,0.803-1.029
			c0.77-2.326,2.76-3.311,4.678-4.4c0.277-0.16,0.48-0.453,0.718-0.682C163.202,57.713,163.136,57.627,163.068,57.539z"/>
		<path fill-rule="evenodd" clip-rule="evenodd" fill="#FFFFFF" d="M164.339,59.672c2.604-0.934,5.195-1.865,7.891-2.83
			c-0.064-0.471-0.136-1.021-0.217-1.635c-1.311,0.436-2.577,0.861-3.847,1.277c-0.928,0.303-1.854,0.613-2.794,0.875
			C163.755,57.811,163.587,58.186,164.339,59.672z"/>
		<path fill-rule="evenodd" clip-rule="evenodd" fill="#FFFFFF" d="M138.124,118.454c-3.94-0.48-6.975,1.236-10.216,3.283
			c1.693-0.146,3.117,0.58,4.544-0.32c1.254-0.787,2.576-1.459,3.881-2.156C136.876,118.973,137.452,118.754,138.124,118.454z"/>
		<path fill-rule="evenodd" clip-rule="evenodd" fill="#FFFFFF" d="M140.148,122.686c-1.755,0.842-3.507,1.686-5.19,2.496
			c0.773,0.836,1.261,2.172,1.225,3.793c1.766-1.777,2.859-3.969,4.188-5.996C140.296,122.881,140.224,122.782,140.148,122.686z"/>
		<path fill-rule="evenodd" clip-rule="evenodd" fill="#595757" d="M160.995,65.707c1.762-0.949,3.344-1.801,4.9-2.639
			c-0.518-0.475-1.175-1.076-1.864-1.713c-1.536,1.344-3.128,2.717-4.696,4.117c-0.488,0.436-0.796,0.975-0.418,1.861
			c0.781-0.434,1.532-0.848,2.486-1.379C161.253,65.863,161.063,65.748,160.995,65.707z"/>
		<path fill-rule="evenodd" clip-rule="evenodd" d="M160.138,51.766c-0.586,0.154-1.225,0.215-1.752,0.48
			c-1.746,0.881-3.479,1.795-5.164,2.785c-0.722,0.424-1.389,1.002-1.943,1.629c-0.346,0.389-0.438,1.004-0.504,1.596
			c2.278-2.543,5.327-3.545,8.327-4.68c0.528-0.199,0.845-0.961,1.261-1.463C160.288,51.998,160.214,51.881,160.138,51.766z"/>
		<path fill-rule="evenodd" clip-rule="evenodd" fill="#727171" d="M177.398,112.414c0.878-1.977,1.674-3.76,2.435-5.475
			C176.628,108.043,176.009,109.928,177.398,112.414z"/>
		<path fill-rule="evenodd" clip-rule="evenodd" fill="#FFFFFF" d="M142.591,131.381c2.473-2.9,4.947-5.805,7.416-8.707
			C146.858,125.01,144.438,127.975,142.591,131.381z"/>
		<path fill-rule="evenodd" clip-rule="evenodd" fill="#FFFFFF" d="M193.29,91.156c-1.064,1.803-2.034,3.449-3.045,5.156
			c0.229,0.174,0.456,0.348,0.8,0.611C192.044,95.1,193.712,93.66,193.29,91.156z"/>
		<path fill-rule="evenodd" clip-rule="evenodd" fill="#FFFFFF" d="M137.152,120.325c-0.163,0.082-0.427,0.129-0.475,0.254
			c-0.459,1.199-1.604,1.404-2.587,1.869c-0.449,0.211-0.881,0.484-1.266,0.797c-0.139,0.109-0.115,0.42-0.162,0.635
			c0.197,0.041,0.414,0.148,0.59,0.102c0.741-0.189,1.475-0.422,2.205-0.66c0.098-0.029,0.164-0.176,0.229-0.279
			c0.522-0.857,1.038-1.719,1.556-2.576C137.214,120.418,137.183,120.372,137.152,120.325z"/>
		<path fill-rule="evenodd" clip-rule="evenodd" fill="#854B3F" d="M191.86,49.127c3.254,0.979,4.033,0.91,5.732-0.5
			C195.689,48.793,193.836,48.953,191.86,49.127z"/>
		<path fill-rule="evenodd" clip-rule="evenodd" fill="#FFFFFF" d="M135.104,112.887c2.271-0.582,4.699-1.207,7.164-1.842
			C139.632,111.023,137.072,111.168,135.104,112.887z"/>
		<path fill-rule="evenodd" clip-rule="evenodd" fill="#FFFFFF" d="M133.097,121.737c-1.538,0.648-2.795,1.178-4.051,1.703
			c0.03,0.135,0.064,0.27,0.099,0.404c0.56-0.053,1.153-0.006,1.675-0.18C132.054,123.254,132.04,123.211,133.097,121.737z"/>
		<path fill-rule="evenodd" clip-rule="evenodd" fill="#FFFFFF" d="M136.656,52.271c1.514-0.197,3.124,0.029,4.478-0.893
			C139.596,51.477,138.069,51.619,136.656,52.271z"/>
		<path fill-rule="evenodd" clip-rule="evenodd" fill="#FFFFFF" d="M192.302,51.951c-0.289-0.461-0.398-0.818-0.631-0.947
			c-0.181-0.098-0.709,0.037-0.748,0.168c-0.078,0.27-0.023,0.801,0.134,0.869C191.333,52.16,191.722,52.014,192.302,51.951z"/>
		<path fill-rule="evenodd" clip-rule="evenodd" d="M179.372,100.176c-0.779,0.795-1.536,1.609-2.342,2.375
			c-0.727,0.691-1.473,1.344-1.592,2.555c0.256-0.074,0.436-0.072,0.512-0.156c1.084-1.217,2.556-1.783,3.964-2.494
			c1.163-0.588,2.249-1.35,3.298-2.135c0.365-0.273,0.617-0.807,0.746-1.268c0.17-0.605-0.156-1.129-0.805-1.117
			c-2.512,0.053-4.906,0.461-6.604,2.605c-0.116,0.148-0.28,0.279-0.339,0.447c-0.078,0.234-0.077,0.496-0.111,0.744
			c0.233-0.082,0.539-0.1,0.689-0.262C177.464,100.734,178.229,100.188,179.372,100.176z"/>
		<path fill-rule="evenodd" clip-rule="evenodd" d="M161.943,107.844c-4.53,1.945-9.06,3.889-13.589,5.833
			c0.043,0.105,0.089,0.213,0.131,0.32c4.557-1.874,9.11-3.745,13.666-5.616C162.081,108.201,162.012,108.021,161.943,107.844z"/>
		<path fill-rule="evenodd" clip-rule="evenodd" d="M167.636,96.475c0.323-0.729,0.646-1.455,0.971-2.182
			c-0.072-0.137-0.143-0.27-0.212-0.406c-0.142,0.16-0.253,0.385-0.429,0.471c-0.736,0.357-1.196,1.275-2.236,1.07
			c-0.131-0.025-0.381,0.559-0.422,1.027c0.801-0.449,1.601-0.898,2.53-1.422c-0.378,0.85-0.694,1.561-1.112,2.5
			c1.669-0.582,2.73-1.48,3.371-2.898c-0.75,0.67-1.498,1.34-2.247,2.01C167.778,96.588,167.706,96.531,167.636,96.475z"/>
		<path fill-rule="evenodd" clip-rule="evenodd" d="M147.724,116.293c3.146-1.408,6.293-2.815,9.439-4.223
			C153.806,112.98,150.704,114.477,147.724,116.293z"/>
		<path fill-rule="evenodd" clip-rule="evenodd" d="M163.503,100.912c2.578-1.66,5.158-3.318,7.688-4.943
			C170.263,95.896,164.618,99.375,163.503,100.912z"/>
		<path fill-rule="evenodd" clip-rule="evenodd" d="M144.831,114.249c-1.719,1.955-3.438,3.914-5.135,5.844
			C141.377,119.206,144.585,115.741,144.831,114.249z"/>
		<path fill-rule="evenodd" clip-rule="evenodd" d="M155.946,99.965c2.015-2.279,4.029-4.561,6.045-6.84
			c-0.106-0.096-0.219-0.189-0.324-0.285c-1.98,2.313-3.959,4.625-5.938,6.936C155.802,99.84,155.873,99.904,155.946,99.965z"/>
		<path fill-rule="evenodd" clip-rule="evenodd" d="M161.433,98.365c-2.549,1.924-5.098,3.846-7.799,5.889
			C156.688,102.684,159.289,100.826,161.433,98.365z"/>
		<path fill-rule="evenodd" clip-rule="evenodd" d="M165.53,90.697c-0.528,0.805-1.057,1.611-1.7,2.59
			c1.366,0.035,2.28-1.111,3.554-0.537c0.125-0.189,0.34-0.512,0.554-0.834c-0.026-0.07-0.056-0.143-0.085-0.211
			c-0.939,0.301-1.879,0.604-2.821,0.904c-0.083-0.047-0.165-0.096-0.247-0.143c0.247-0.6,0.493-1.197,0.739-1.795L165.53,90.697z"
			/>
		<path fill-rule="evenodd" clip-rule="evenodd" d="M161.781,101.357c-1.876,1.074-3.75,2.15-5.624,3.225
			c0.044,0.08,0.09,0.162,0.133,0.24c1.888-1.051,3.773-2.102,5.663-3.154C161.894,101.564,161.837,101.461,161.781,101.357z"/>
		<path fill-rule="evenodd" clip-rule="evenodd" d="M157.064,108.053c2.382-1.012,4.765-2.027,7.144-3.039c0-0.006,0-0.012,0-0.016
			c-2.377,1.021-4.754,2.047-7.129,3.07C157.071,108.064,157.069,108.059,157.064,108.053z"/>
		<path fill-rule="evenodd" clip-rule="evenodd" d="M148.843,109.582c-1.195,0.908-1.938,2.092-2.195,3.568
			C147.38,111.961,148.11,110.773,148.843,109.582z"/>
		<path fill-rule="evenodd" clip-rule="evenodd" d="M165.523,90.672c0.728-0.883,1.456-1.768,2.18-2.65
			c-1.444,0.338-1.604,1.658-2.173,2.672C165.53,90.697,165.523,90.672,165.523,90.672z"/>
		<path fill-rule="evenodd" clip-rule="evenodd" d="M146.44,117.442c-0.861,0.602-1.723,1.201-2.582,1.803
			c0.042,0.064,0.088,0.133,0.13,0.199c0.88-0.578,1.756-1.16,2.632-1.738C146.561,117.618,146.501,117.53,146.44,117.442z"/>
		<path fill-rule="evenodd" clip-rule="evenodd" d="M168.015,68.111c-2.598,3.752-5.469,7.246-9.051,10.105
			C162.811,75.586,165.97,72.338,168.015,68.111z"/>
		<path fill-rule="evenodd" clip-rule="evenodd" d="M166.585,74.625c-2.059,1.965-4.118,3.928-6.175,5.891
			c2.46-1.533,4.692-3.316,6.481-5.588C166.791,74.828,166.687,74.725,166.585,74.625z"/>
		<path fill-rule="evenodd" clip-rule="evenodd" d="M160.548,73.336c2.813-2.461,5.67-4.965,8.531-7.467
			C165.693,67.781,163.007,70.484,160.548,73.336z"/>
		<path fill-rule="evenodd" clip-rule="evenodd" d="M164.586,77.719c-1.776,2.021-3.555,4.043-5.333,6.066
			c0.078,0.07,0.158,0.143,0.236,0.217c1.819-1.99,3.639-3.977,5.457-5.965C164.825,77.932,164.706,77.826,164.586,77.719z"/>
		<path fill-rule="evenodd" clip-rule="evenodd" d="M156.902,79.387c1.429-1.713,2.856-3.432,4.284-5.146
			C159.024,75.367,157.843,77.301,156.902,79.387z"/>
		<path fill-rule="evenodd" clip-rule="evenodd" d="M167.049,64.998c-2.623,0.777-4.126,2.816-5.552,4.943
			C163.159,68.082,164.771,66.168,167.049,64.998z"/>
		<path fill-rule="evenodd" clip-rule="evenodd" d="M155.354,83.857c1.657-2.02,3.313-4.039,4.97-6.059
			C158.245,79.471,156.688,81.574,155.354,83.857z"/>
		<path fill-rule="evenodd" clip-rule="evenodd" d="M160.903,70.148c-1.276,1.006-2.213,2.277-2.932,3.711
			c0.071,0.059,0.146,0.115,0.218,0.17c0.981-1.227,1.966-2.459,2.946-3.688C161.061,70.277,160.98,70.213,160.903,70.148z"/>
		<path fill-rule="evenodd" clip-rule="evenodd" d="M166.843,72.354c-1.432,1.357-2.684,2.539-3.933,3.725
			C164.456,75.213,165.801,74.125,166.843,72.354z"/>
		<path fill-rule="evenodd" clip-rule="evenodd" d="M157.051,86.445c0.776-1.084,1.557-2.168,2.337-3.25
			c-0.06-0.043-0.121-0.086-0.18-0.127c-0.783,1.078-1.568,2.158-2.351,3.236C156.923,86.352,156.985,86.398,157.051,86.445z"/>
		<path fill-rule="evenodd" clip-rule="evenodd" d="M201.556,89.119c2.141,4.063,3.521,8.33,3.521,12.971
			C205.8,98.893,203.757,91.205,201.556,89.119z"/>
	</g>
</g>
</svg>
